# WaveFront *.obj file (generated by Autodesk ATF)

mtllib Exterior.mtl

g Body3

v -51.000000 20.000000 0.000000
v -51.000000 18.000000 0.000000
v -51.000000 18.000000 8.500000
v -51.000000 20.000000 8.500000
v -51.000000 -26.000000 0.000000
v -51.000000 -28.000000 0.000000
v -51.000000 -28.000000 8.500000
v -51.000000 -26.000000 8.500000
v -12.000000 10.000000 0.000000
v -12.000000 10.000000 4.000000
v -10.000000 10.000000 4.000000
v -10.000000 10.000000 0.000000
v -12.000000 14.000000 4.000000
v -12.000000 14.000000 0.000000
v -10.000000 14.000000 0.000000
v -10.000000 14.000000 4.000000
v -12.000000 -6.000000 0.000000
v -12.000000 -6.000000 4.000000
v -10.000000 -6.000000 4.000000
v -10.000000 -6.000000 0.000000
v -12.000000 -2.000000 4.000000
v -12.000000 -2.000000 0.000000
v -10.000000 -2.000000 0.000000
v -10.000000 -2.000000 4.000000
v -12.000000 -22.000000 0.000000
v -12.000000 -22.000000 4.000000
v -10.000000 -22.000000 4.000000
v -10.000000 -22.000000 0.000000
v -12.000000 -18.000000 4.000000
v -12.000000 -18.000000 0.000000
v -10.000000 -18.000000 0.000000
v -10.000000 -18.000000 4.000000
v -10.000000 -28.000000 0.000000
v -12.000000 -26.000000 0.000000
v -12.000000 18.000000 0.000000
v -10.000000 20.000000 0.000000
v -12.000000 -26.000000 8.500000
v -12.000000 18.000000 8.500000
v -10.000000 20.000000 8.500000
v -10.000000 -28.000000 8.500000
vt 0.000000 -200.000000 0.000000
vt 850.000000 -200.000000 0.000000
vt 0.000000 0.000000 0.000000
vt 850.000000 0.000000 0.000000
vt 0.000000 -200.000000 0.000000
vt 850.000000 -200.000000 0.000000
vt 0.000000 0.000000 0.000000
vt 850.000000 0.000000 0.000000
vt -0.000000 200.000000 0.000000
vt -400.000000 200.000000 0.000000
vt -0.000000 0.000000 0.000000
vt -400.000000 0.000000 0.000000
vt -0.000000 200.000000 0.000000
vt -400.000000 200.000000 0.000000
vt 0.000000 0.000000 0.000000
vt -400.000000 0.000000 0.000000
vt -0.000000 200.000000 0.000000
vt -400.000000 200.000000 0.000000
vt -0.000000 0.000000 0.000000
vt -400.000000 0.000000 0.000000
vt -0.000000 200.000000 0.000000
vt -400.000000 200.000000 0.000000
vt -0.000000 0.000000 0.000000
vt -400.000000 0.000000 0.000000
vt -0.000000 200.000000 0.000000
vt -400.000000 200.000000 0.000000
vt 0.000000 0.000000 0.000000
vt -400.000000 0.000000 0.000000
vt -0.000000 200.000000 0.000000
vt -400.000000 200.000000 0.000000
vt -0.000000 0.000000 0.000000
vt -400.000000 0.000000 0.000000
vt -0.000000 200.000000 0.000000
vt -400.000000 200.000000 0.000000
vt -0.000000 0.000000 0.000000
vt -400.000000 0.000000 0.000000
vt -0.000000 200.000000 0.000000
vt -400.000000 200.000000 0.000000
vt 0.000000 0.000000 0.000000
vt -400.000000 0.000000 0.000000
vt -0.000000 200.000000 0.000000
vt -400.000000 200.000000 0.000000
vt -0.000000 0.000000 0.000000
vt -400.000000 0.000000 0.000000
vt -1600.000003 -1800.000004 0.000000
vt -1800.000004 -1800.000004 0.000000
vt -1600.000003 -2200.000004 0.000000
vt -1800.000004 -2400.000005 0.000000
vt 2300.000005 -2400.000005 0.000000
vt 2300.000005 -2200.000004 0.000000
vt -1600.000000 -200.000000 0.000000
vt -1800.000000 -200.000000 0.000000
vt -1600.000000 -1400.000000 0.000000
vt -1800.000000 -1400.000000 0.000000
vt -1600.000000 1400.000000 0.000000
vt -1800.000000 1400.000000 0.000000
vt -1600.000000 200.000000 0.000000
vt -1800.000000 200.000000 0.000000
vt -1600.000003 1800.000004 0.000000
vt -1600.000003 2200.000004 0.000000
vt -1800.000004 1800.000004 0.000000
vt -1800.000004 2400.000005 0.000000
vt 2300.000005 2400.000005 0.000000
vt 2300.000005 2200.000004 0.000000
vt 400.000001 0.000000 0.000000
vt 400.000001 400.000000 0.000000
vt 0.000000 0.000000 0.000000
vt 0.000000 850.000000 0.000000
vt 800.000002 400.000000 0.000000
vt 2000.000004 400.000000 0.000000
vt 2000.000004 0.000000 0.000000
vt 800.000002 0.000000 0.000000
vt 2400.000005 400.000000 0.000000
vt 4400.000009 850.000000 0.000000
vt 3600.000007 400.000000 0.000000
vt 4000.000008 400.000000 0.000000
vt 2400.000005 0.000000 0.000000
vt 3600.000007 0.000000 0.000000
vt 4000.000008 0.000000 0.000000
vt 4400.000009 0.000000 0.000000
vt -0.000000 0.000000 0.000000
vt 4100.000008 0.000000 0.000000
vt -0.000000 850.000000 0.000000
vt 4100.000008 850.000000 0.000000
vt 4200.000008 0.000000 0.000000
vt 4800.000010 0.000000 0.000000
vt 4200.000008 400.000000 0.000000
vt 4800.000010 850.000000 0.000000
vt 3800.000008 400.000000 0.000000
vt 2600.000005 400.000000 0.000000
vt 3800.000008 0.000000 0.000000
vt 2600.000005 0.000000 0.000000
vt 0.000000 850.000000 0.000000
vt 2200.000004 400.000000 0.000000
vt 1000.000002 400.000000 0.000000
vt 2200.000004 0.000000 0.000000
vt 1000.000002 0.000000 0.000000
vt 600.000001 400.000000 0.000000
vt 0.000000 0.000000 0.000000
vt 600.000001 0.000000 0.000000
vt -500.000001 0.000000 0.000000
vt 3600.000007 0.000000 0.000000
vt -500.000001 850.000000 0.000000
vt 3600.000007 850.000000 0.000000
vt 0.000000 0.000000 0.000000
vt 3900.000008 0.000000 0.000000
vt 0.000000 850.000000 0.000000
vt 3900.000008 850.000000 0.000000
vt -500.000001 0.000000 0.000000
vt 3400.000007 0.000000 0.000000
vt -500.000001 850.000000 0.000000
vt 3400.000007 850.000000 0.000000
vt -2300.000005 2199.999999 0.000000
vt 1600.000003 2199.999999 0.000000
vt -2300.000005 2399.999999 0.000000
vt 1800.000004 2399.999999 0.000000
vt 1800.000004 -2399.999999 0.000000
vt 1600.000003 -2199.999999 0.000000
vt -2300.000005 -2399.999999 0.000000
vt -2300.000005 -2199.999999 0.000000
vn -100.000000 0.000000 0.000000
vn -100.000000 0.000000 0.000000
vn -100.000000 0.000000 0.000000
vn -100.000000 0.000000 0.000000
vn -100.000000 0.000000 0.000000
vn -100.000000 0.000000 0.000000
vn -100.000000 0.000000 0.000000
vn -100.000000 0.000000 0.000000
vn 0.000000 100.000000 0.000000
vn 0.000000 100.000000 0.000000
vn 0.000000 100.000000 0.000000
vn 0.000000 100.000000 0.000000
vn 0.000000 -100.000000 0.000000
vn 0.000000 -100.000000 0.000000
vn 0.000000 -100.000000 0.000000
vn 0.000000 -100.000000 0.000000
vn 0.000000 0.000000 -100.000000
vn 0.000000 0.000000 -100.000000
vn 0.000000 0.000000 -100.000000
vn 0.000000 0.000000 -100.000000
vn 0.000000 100.000000 0.000000
vn 0.000000 100.000000 0.000000
vn 0.000000 100.000000 0.000000
vn 0.000000 100.000000 0.000000
vn 0.000000 -100.000000 0.000000
vn 0.000000 -100.000000 0.000000
vn 0.000000 -100.000000 0.000000
vn 0.000000 -100.000000 0.000000
vn 0.000000 0.000000 -100.000000
vn 0.000000 0.000000 -100.000000
vn 0.000000 0.000000 -100.000000
vn 0.000000 0.000000 -100.000000
vn 0.000000 100.000000 0.000000
vn 0.000000 100.000000 0.000000
vn 0.000000 100.000000 0.000000
vn 0.000000 100.000000 0.000000
vn 0.000000 -100.000000 0.000000
vn 0.000000 -100.000000 0.000000
vn 0.000000 -100.000000 0.000000
vn 0.000000 -100.000000 0.000000
vn 0.000000 0.000000 -100.000000
vn 0.000000 0.000000 -100.000000
vn 0.000000 0.000000 -100.000000
vn 0.000000 0.000000 -100.000000
vn -0.000000 0.000000 -100.000000
vn -0.000000 0.000000 -100.000000
vn -0.000000 0.000000 -100.000000
vn -0.000000 0.000000 -100.000000
vn -0.000000 0.000000 -100.000000
vn -0.000000 0.000000 -100.000000
vn -0.000000 0.000000 -100.000000
vn -0.000000 0.000000 -100.000000
vn -0.000000 0.000000 -100.000000
vn -0.000000 0.000000 -100.000000
vn -0.000000 0.000000 -100.000000
vn -0.000000 0.000000 -100.000000
vn -0.000000 0.000000 -100.000000
vn -0.000000 0.000000 -100.000000
vn -0.000000 0.000000 -100.000000
vn -0.000000 0.000000 -100.000000
vn -0.000000 0.000000 -100.000000
vn -0.000000 0.000000 -100.000000
vn -0.000000 0.000000 -100.000000
vn -0.000000 0.000000 -100.000000
vn -100.000000 0.000000 0.000000
vn -100.000000 0.000000 0.000000
vn -100.000000 0.000000 0.000000
vn -100.000000 0.000000 0.000000
vn -100.000000 0.000000 0.000000
vn -100.000000 0.000000 0.000000
vn -100.000000 0.000000 0.000000
vn -100.000000 0.000000 0.000000
vn -100.000000 0.000000 0.000000
vn -100.000000 0.000000 0.000000
vn -100.000000 0.000000 0.000000
vn -100.000000 0.000000 0.000000
vn -100.000000 0.000000 0.000000
vn -100.000000 0.000000 0.000000
vn -100.000000 0.000000 0.000000
vn -100.000000 0.000000 0.000000
vn 0.000000 100.000000 0.000000
vn 0.000000 100.000000 0.000000
vn 0.000000 100.000000 0.000000
vn 0.000000 100.000000 0.000000
vn 100.000000 0.000000 0.000000
vn 100.000000 0.000000 0.000000
vn 100.000000 0.000000 0.000000
vn 100.000000 0.000000 0.000000
vn 100.000000 0.000000 0.000000
vn 100.000000 0.000000 0.000000
vn 100.000000 0.000000 0.000000
vn 100.000000 0.000000 0.000000
vn 100.000000 0.000000 0.000000
vn 100.000000 0.000000 0.000000
vn 100.000000 0.000000 0.000000
vn 100.000000 0.000000 0.000000
vn 100.000000 0.000000 0.000000
vn 100.000000 0.000000 0.000000
vn 100.000000 0.000000 0.000000
vn 100.000000 0.000000 0.000000
vn 0.000000 -100.000000 0.000000
vn 0.000000 -100.000000 0.000000
vn 0.000000 -100.000000 0.000000
vn 0.000000 -100.000000 0.000000
vn 0.000000 100.000000 0.000000
vn 0.000000 100.000000 0.000000
vn 0.000000 100.000000 0.000000
vn 0.000000 100.000000 0.000000
vn 0.000000 -100.000000 0.000000
vn 0.000000 -100.000000 0.000000
vn 0.000000 -100.000000 0.000000
vn 0.000000 -100.000000 0.000000
vn 0.000000 0.000000 100.000000
vn 0.000000 0.000000 100.000000
vn 0.000000 0.000000 100.000000
vn 0.000000 0.000000 100.000000
vn 0.000000 0.000000 100.000000
vn 0.000000 0.000000 100.000000
vn 0.000000 0.000000 100.000000
vn 0.000000 0.000000 100.000000
usemtl Steel_-_Satin
f 2/1/1 3/2/2 1/3/3
f 1/3/3 3/2/2 4/4/4
f 6/5/5 7/6/6 5/7/7
f 5/7/7 7/6/6 8/8/8
f 9/9/9 10/10/10 12/11/11
f 12/11/11 10/10/10 11/12/12
f 13/13/13 14/14/14 16/15/15
f 16/15/15 14/14/14 15/16/16
f 10/17/17 13/18/18 11/19/19
f 11/19/19 13/18/18 16/20/20
f 17/21/21 18/22/22 20/23/23
f 20/23/23 18/22/22 19/24/24
f 21/25/25 22/26/26 24/27/27
f 24/27/27 22/26/26 23/28/28
f 18/29/29 21/30/30 19/31/31
f 19/31/31 21/30/30 24/32/32
f 25/33/33 26/34/34 28/35/35
f 28/35/35 26/34/34 27/36/36
f 29/37/37 30/38/38 32/39/39
f 32/39/39 30/38/38 31/40/40
f 26/41/41 29/42/42 27/43/43
f 27/43/43 29/42/42 32/44/44
f 25/45/45 28/46/46 34/47/47
f 34/47/47 28/46/46 33/48/48
f 34/47/47 33/48/48 6/49/49
f 6/49/49 5/50/50 34/47/47
f 17/51/51 20/52/52 30/53/53
f 30/53/53 20/52/52 31/54/54
f 9/55/55 12/56/56 22/57/57
f 22/57/57 12/56/56 23/58/58
f 14/59/59 35/60/60 15/61/61
f 15/61/61 35/60/60 36/62/62
f 36/62/62 35/60/60 1/63/63
f 1/63/63 35/60/60 2/64/64
f 14/65/65 13/66/66 35/67/67
f 35/67/67 13/66/66 38/68/68
f 38/68/68 13/66/66 10/69/69
f 38/68/68 10/69/69 21/70/70
f 21/70/70 10/69/69 22/71/71
f 22/71/71 10/69/69 9/72/72
f 21/70/70 18/73/73 38/68/68
f 38/68/68 18/73/73 37/74/74
f 37/74/74 18/73/73 29/75/75
f 37/74/74 29/75/75 26/76/76
f 17/77/77 30/78/78 18/73/73
f 18/73/73 30/78/78 29/75/75
f 25/79/79 34/80/80 26/76/76
f 26/76/76 34/80/80 37/74/74
f 36/81/81 1/82/82 39/83/83
f 39/83/83 1/82/82 4/84/84
f 15/85/85 36/86/86 16/87/87
f 16/87/87 36/86/86 39/88/88
f 16/87/87 39/88/88 11/89/89
f 11/89/89 39/88/88 24/90/90
f 11/89/89 24/90/90 12/91/91
f 12/91/91 24/90/90 23/92/92
f 39/88/88 40/93/93 24/90/90
f 24/90/90 40/93/93 19/94/94
f 19/94/94 40/93/93 32/95/95
f 19/94/94 32/95/95 20/96/96
f 20/96/96 32/95/95 31/97/97
f 32/95/95 40/93/93 27/98/98
f 27/98/98 40/93/93 33/99/99
f 27/98/98 33/99/99 28/100/100
f 6/101/101 33/102/102 7/103/103
f 7/103/103 33/102/102 40/104/104
f 34/105/105 5/106/106 37/107/107
f 37/107/107 5/106/106 8/108/108
f 2/109/109 35/110/110 3/111/111
f 3/111/111 35/110/110 38/112/112
f 3/113/113 38/114/114 4/115/115
f 4/115/115 38/114/114 39/116/116
f 39/116/116 38/114/114 40/117/117
f 40/117/117 38/114/114 37/118/118
f 40/117/117 37/118/118 7/119/119
f 7/119/119 37/118/118 8/120/120
# 40 vertices
# 120 texture params
# 120 normals
# 76 facets

# 1 groups
