# WaveFront *.obj file (generated by Autodesk ATF)

mtllib Intersection.mtl

g Body2

v -2.000000 12.000000 8.500000
v -2.029058 11.760684 8.500000
v -2.114544 11.535277 8.500000
v -2.251489 11.336877 8.500000
v -2.431935 11.177016 8.500000
v -2.645395 11.064984 8.500000
v -2.879463 11.007291 8.500000
v -3.120537 11.007291 8.500000
v -3.354605 11.064984 8.500000
v -3.568065 11.177016 8.500000
v -3.748511 11.336877 8.500000
v -3.885456 11.535277 8.500000
v -3.970942 11.760684 8.500000
v -4.000000 12.000000 8.500000
v -3.970942 12.239316 8.500000
v -3.885456 12.464723 8.500000
v -3.748511 12.663123 8.500000
v -3.568065 12.822984 8.500000
v -3.354605 12.935016 8.500000
v -3.120537 12.992709 8.500000
v -2.879463 12.992709 8.500000
v -2.645395 12.935016 8.500000
v -2.431935 12.822984 8.500000
v -2.251489 12.663123 8.500000
v -2.114544 12.464723 8.500000
v -2.029058 12.239316 8.500000
v -2.000000 12.000000 0.500000
v -2.029058 12.239316 0.500000
v -2.114544 12.464723 0.500000
v -2.251489 12.663123 0.500000
v -2.431935 12.822984 0.500000
v -2.645395 12.935016 0.500000
v -2.879463 12.992709 0.500000
v -3.120537 12.992709 0.500000
v -3.354605 12.935016 0.500000
v -3.568065 12.822984 0.500000
v -3.748511 12.663123 0.500000
v -3.885456 12.464723 0.500000
v -3.970942 12.239316 0.500000
v -4.000000 12.000000 0.500000
v -3.970942 11.760684 0.500000
v -3.885456 11.535277 0.500000
v -3.748511 11.336877 0.500000
v -3.568065 11.177016 0.500000
v -3.354605 11.064984 0.500000
v -3.120537 11.007291 0.500000
v -2.879463 11.007291 0.500000
v -2.645395 11.064984 0.500000
v -2.431935 11.177016 0.500000
v -2.251489 11.336877 0.500000
v -2.114544 11.535277 0.500000
v -2.029058 11.760684 0.500000
v -2.000000 12.000000 4.500000
v -2.029058 11.760684 4.500000
v -2.114544 11.535277 4.500000
v -2.251489 11.336877 4.500000
v -2.431935 11.177016 4.500000
v -2.645395 11.064984 4.500000
v -2.879463 11.007291 4.500000
v -3.120537 11.007291 4.500000
v -3.354605 11.064984 4.500000
v -3.568065 11.177016 4.500000
v -3.748511 11.336877 4.500000
v -3.885456 11.535277 4.500000
v -3.970942 11.760684 4.500000
v -4.000000 12.000000 4.500000
v -3.970942 12.239316 4.500000
v -3.885456 12.464723 4.500000
v -3.748511 12.663123 4.500000
v -3.568065 12.822984 4.500000
v -3.354605 12.935016 4.500000
v -3.120537 12.992709 4.500000
v -2.879463 12.992709 4.500000
v -2.645395 12.935016 4.500000
v -2.431935 12.822984 4.500000
v -2.251489 12.663123 4.500000
v -2.114544 12.464723 4.500000
v -2.029058 12.239316 4.500000
v -4.000000 -4.000000 0.500000
v -3.970942 -3.760684 0.500000
v -3.885456 -3.535277 0.500000
v -3.748511 -3.336877 0.500000
v -3.568065 -3.177016 0.500000
v -3.354605 -3.064984 0.500000
v -3.120537 -3.007291 0.500000
v -2.879463 -3.007291 0.500000
v -2.645395 -3.064984 0.500000
v -2.431935 -3.177016 0.500000
v -2.251489 -3.336877 0.500000
v -2.114544 -3.535277 0.500000
v -2.029058 -3.760684 0.500000
v -2.000000 -4.000000 0.500000
v -2.000000 19.500000 0.500000
v -2.017037 19.629410 0.500000
v -2.066987 19.750000 0.500000
v -2.146447 19.853553 0.500000
v -2.250000 19.933013 0.500000
v -2.370590 19.982963 0.500000
v -2.500000 20.000000 0.500000
v -3.500000 20.000000 0.500000
v -3.629410 19.982963 0.500000
v -3.750000 19.933013 0.500000
v -3.853553 19.853553 0.500000
v -3.933013 19.750000 0.500000
v -3.982963 19.629410 0.500000
v -4.000000 19.500000 0.500000
v -2.000000 -4.000000 8.500000
v -2.029058 -4.239316 8.500000
v -2.114544 -4.464723 8.500000
v -2.251489 -4.663123 8.500000
v -2.431935 -4.822984 8.500000
v -2.645395 -4.935016 8.500000
v -2.879463 -4.992709 8.500000
v -3.120537 -4.992709 8.500000
v -3.354605 -4.935016 8.500000
v -3.568065 -4.822984 8.500000
v -3.748511 -4.663123 8.500000
v -3.885456 -4.464723 8.500000
v -3.970942 -4.239316 8.500000
v -4.000000 -4.000000 8.500000
v -3.970942 -3.760684 8.500000
v -3.885456 -3.535277 8.500000
v -3.748511 -3.336877 8.500000
v -3.568065 -3.177016 8.500000
v -3.354605 -3.064984 8.500000
v -3.120537 -3.007291 8.500000
v -2.879463 -3.007291 8.500000
v -2.645395 -3.064984 8.500000
v -2.431935 -3.177016 8.500000
v -2.251489 -3.336877 8.500000
v -2.114544 -3.535277 8.500000
v -2.029058 -3.760684 8.500000
v -3.970942 -4.239316 0.500000
v -3.885456 -4.464723 0.500000
v -3.748511 -4.663123 0.500000
v -3.568065 -4.822984 0.500000
v -3.354605 -4.935016 0.500000
v -3.120537 -4.992709 0.500000
v -2.879463 -4.992709 0.500000
v -2.645395 -4.935016 0.500000
v -2.431935 -4.822984 0.500000
v -2.251489 -4.663123 0.500000
v -2.114544 -4.464723 0.500000
v -2.029058 -4.239316 0.500000
v -2.000000 -4.000000 4.500000
v -2.029058 -4.239316 4.500000
v -2.114544 -4.464723 4.500000
v -2.251489 -4.663123 4.500000
v -2.431935 -4.822984 4.500000
v -2.645395 -4.935016 4.500000
v -2.879463 -4.992709 4.500000
v -3.120537 -4.992709 4.500000
v -3.354605 -4.935016 4.500000
v -3.568065 -4.822984 4.500000
v -3.748511 -4.663123 4.500000
v -3.885456 -4.464723 4.500000
v -3.970942 -4.239316 4.500000
v -4.000000 -4.000000 4.500000
v -3.970942 -3.760684 4.500000
v -3.885456 -3.535277 4.500000
v -3.748511 -3.336877 4.500000
v -3.568065 -3.177016 4.500000
v -3.354605 -3.064984 4.500000
v -3.120537 -3.007291 4.500000
v -2.879463 -3.007291 4.500000
v -2.645395 -3.064984 4.500000
v -2.431935 -3.177016 4.500000
v -2.251489 -3.336877 4.500000
v -2.114544 -3.535277 4.500000
v -2.029058 -3.760684 4.500000
v -4.000000 -20.000000 0.500000
v -3.970942 -19.760684 0.500000
v -3.885456 -19.535277 0.500000
v -3.748511 -19.336877 0.500000
v -3.568065 -19.177016 0.500000
v -3.354605 -19.064984 0.500000
v -3.120537 -19.007291 0.500000
v -2.879463 -19.007291 0.500000
v -2.645395 -19.064984 0.500000
v -2.431935 -19.177016 0.500000
v -2.251489 -19.336877 0.500000
v -2.114544 -19.535277 0.500000
v -2.029058 -19.760684 0.500000
v -2.000000 -20.000000 0.500000
v -4.000000 -20.000000 8.500000
v -3.970942 -19.760684 8.500000
v -3.885456 -19.535277 8.500000
v -3.748511 -19.336877 8.500000
v -3.568065 -19.177016 8.500000
v -3.354605 -19.064984 8.500000
v -3.120537 -19.007291 8.500000
v -2.879463 -19.007291 8.500000
v -2.645395 -19.064984 8.500000
v -2.431935 -19.177016 8.500000
v -2.251489 -19.336877 8.500000
v -2.114544 -19.535277 8.500000
v -2.029058 -19.760684 8.500000
v -2.000000 -20.000000 8.500000
v -2.029058 -20.239316 8.500000
v -2.114544 -20.464723 8.500000
v -2.251489 -20.663123 8.500000
v -2.431935 -20.822984 8.500000
v -2.645395 -20.935016 8.500000
v -2.879463 -20.992709 8.500000
v -3.120537 -20.992709 8.500000
v -3.354605 -20.935016 8.500000
v -3.568065 -20.822984 8.500000
v -3.748511 -20.663123 8.500000
v -3.885456 -20.464723 8.500000
v -3.970942 -20.239316 8.500000
v -3.970942 -20.239316 0.500000
v -3.885456 -20.464723 0.500000
v -3.748511 -20.663123 0.500000
v -3.568065 -20.822984 0.500000
v -3.354605 -20.935016 0.500000
v -3.120537 -20.992709 0.500000
v -2.879463 -20.992709 0.500000
v -2.645395 -20.935016 0.500000
v -2.431935 -20.822984 0.500000
v -2.251489 -20.663123 0.500000
v -2.114544 -20.464723 0.500000
v -2.029058 -20.239316 0.500000
v -2.000000 -20.000000 4.500000
v -3.970942 -19.760684 4.500000
v -4.000000 -20.000000 4.500000
v -3.885456 -19.535277 4.500000
v -3.748511 -19.336877 4.500000
v -3.568065 -19.177016 4.500000
v -3.354605 -19.064984 4.500000
v -3.120537 -19.007291 4.500000
v -2.879463 -19.007291 4.500000
v -2.645395 -19.064984 4.500000
v -2.431935 -19.177016 4.500000
v -2.251489 -19.336877 4.500000
v -2.114544 -19.535277 4.500000
v -2.029058 -19.760684 4.500000
v -2.029058 -20.239316 4.500000
v -2.114544 -20.464723 4.500000
v -2.251489 -20.663123 4.500000
v -2.431935 -20.822984 4.500000
v -2.645395 -20.935016 4.500000
v -2.879463 -20.992709 4.500000
v -3.120537 -20.992709 4.500000
v -3.354605 -20.935016 4.500000
v -3.568065 -20.822984 4.500000
v -3.748511 -20.663123 4.500000
v -3.885456 -20.464723 4.500000
v -3.970942 -20.239316 4.500000
v -4.000000 -27.500000 0.500000
v -3.982963 -27.629410 0.500000
v -3.933013 -27.750000 0.500000
v -3.853553 -27.853553 0.500000
v -3.750000 -27.933013 0.500000
v -3.629410 -27.982963 0.500000
v -3.500000 -28.000000 0.500000
v -2.500000 -28.000000 0.500000
v -2.370590 -27.982963 0.500000
v -2.250000 -27.933013 0.500000
v -2.146447 -27.853553 0.500000
v -2.066987 -27.750000 0.500000
v -2.017037 -27.629410 0.500000
v -2.000000 -27.500000 0.500000
v -2.000000 -27.500000 0.000000
v -2.000000 19.500000 0.000000
v -2.500000 -28.000000 0.000000
v -2.370590 -27.982963 0.000000
v -2.250000 -27.933013 0.000000
v -2.146447 -27.853553 0.000000
v -2.066987 -27.750000 0.000000
v -2.017037 -27.629410 0.000000
v -3.500000 -28.000000 0.000000
v -4.000000 -27.500000 0.000000
v -3.982963 -27.629410 0.000000
v -3.933013 -27.750000 0.000000
v -3.853553 -27.853553 0.000000
v -3.750000 -27.933013 0.000000
v -3.629410 -27.982963 0.000000
v -4.000000 19.500000 0.000000
v -3.500000 20.000000 0.000000
v -3.629410 19.982963 0.000000
v -3.750000 19.933013 0.000000
v -3.853553 19.853553 0.000000
v -3.933013 19.750000 0.000000
v -3.982963 19.629410 0.000000
v -2.500000 20.000000 0.000000
v -2.017037 19.629410 0.000000
v -2.066987 19.750000 0.000000
v -2.146447 19.853553 0.000000
v -2.250000 19.933013 0.000000
v -2.370590 19.982963 0.000000
vt -800.000000 289.993168 0.000000
vt -400.000000 289.993168 0.000000
vt -800.000000 314.159265 0.000000
vt -400.000000 314.159265 0.000000
vt -800.000000 -314.159265 0.000000
vt -400.000000 -314.159265 0.000000
vt -800.000000 -289.993168 0.000000
vt -400.000000 -289.993168 0.000000
vt -800.000000 -265.827071 0.000000
vt -400.000000 -265.827071 0.000000
vt -800.000000 -241.660973 0.000000
vt -400.000000 -241.660973 0.000000
vt -800.000000 -217.494876 0.000000
vt -400.000000 -217.494876 0.000000
vt -800.000000 -193.328779 0.000000
vt -400.000000 -193.328779 0.000000
vt -800.000000 -169.162681 0.000000
vt -400.000000 -169.162681 0.000000
vt -800.000000 -144.996584 0.000000
vt -400.000000 -144.996584 0.000000
vt -800.000000 -120.830487 0.000000
vt -400.000000 -120.830487 0.000000
vt -800.000000 -96.664389 0.000000
vt -400.000000 -96.664389 0.000000
vt -800.000000 -72.498292 0.000000
vt -400.000000 -72.498292 0.000000
vt -800.000000 -48.332195 0.000000
vt -400.000000 -48.332195 0.000000
vt -800.000000 -24.166097 0.000000
vt -400.000000 -24.166097 0.000000
vt -800.000000 0.000000 0.000000
vt -400.000000 0.000000 0.000000
vt -800.000000 24.166097 0.000000
vt -400.000000 24.166097 0.000000
vt -800.000000 48.332195 0.000000
vt -400.000000 48.332195 0.000000
vt -800.000000 72.498292 0.000000
vt -400.000000 72.498292 0.000000
vt -800.000000 96.664389 0.000000
vt -400.000000 96.664389 0.000000
vt -800.000000 120.830487 0.000000
vt -400.000000 120.830487 0.000000
vt -800.000000 144.996584 0.000000
vt -400.000000 144.996584 0.000000
vt -800.000000 169.162681 0.000000
vt -400.000000 169.162681 0.000000
vt -800.000000 193.328779 0.000000
vt -400.000000 193.328779 0.000000
vt -800.000000 217.494876 0.000000
vt -400.000000 217.494876 0.000000
vt -800.000000 241.660973 0.000000
vt -400.000000 241.660973 0.000000
vt -800.000000 265.827071 0.000000
vt -400.000000 265.827071 0.000000
vt -0.000000 -289.993168 0.000000
vt -0.000000 -314.159265 0.000000
vt -0.000000 314.159265 0.000000
vt -0.000000 289.993168 0.000000
vt -0.000000 265.827071 0.000000
vt -0.000000 241.660973 0.000000
vt -0.000000 217.494876 0.000000
vt -0.000000 193.328779 0.000000
vt -0.000000 169.162681 0.000000
vt -0.000000 144.996584 0.000000
vt -0.000000 120.830487 0.000000
vt -0.000000 96.664389 0.000000
vt -0.000000 72.498292 0.000000
vt -0.000000 48.332195 0.000000
vt -0.000000 24.166097 0.000000
vt -0.000000 0.000000 0.000000
vt -0.000000 -24.166097 0.000000
vt -0.000000 -48.332195 0.000000
vt -0.000000 -72.498292 0.000000
vt -0.000000 -96.664389 0.000000
vt -0.000000 -120.830487 0.000000
vt -0.000000 -144.996584 0.000000
vt -0.000000 -169.162681 0.000000
vt -0.000000 -193.328779 0.000000
vt -0.000000 -217.494876 0.000000
vt -0.000000 -241.660973 0.000000
vt -0.000000 -265.827071 0.000000
vt -97.094182 -23.931566 0.000000
vt 97.094182 -23.931566 0.000000
vt -100.000000 0.000000 0.000000
vt 100.000000 0.000000 0.000000
vt -97.094182 23.931566 0.000000
vt 97.094182 23.931566 0.000000
vt -88.545603 46.472317 0.000000
vt 88.545603 46.472317 0.000000
vt -74.851075 66.312266 0.000000
vt 74.851075 66.312266 0.000000
vt -56.806475 82.298387 0.000000
vt 56.806475 82.298387 0.000000
vt -35.460489 93.501624 0.000000
vt 35.460489 93.501624 0.000000
vt -12.053668 99.270887 0.000000
vt 12.053668 99.270887 0.000000
vt 88.545603 -46.472317 0.000000
vt -88.545603 -46.472317 0.000000
vt 74.851075 -66.312266 0.000000
vt -74.851075 -66.312266 0.000000
vt 56.806475 -82.298387 0.000000
vt -56.806475 -82.298387 0.000000
vt 35.460489 -93.501624 0.000000
vt -35.460489 -93.501624 0.000000
vt 12.053668 -99.270887 0.000000
vt -12.053668 -99.270887 0.000000
vt 100.000000 1600.000000 0.000000
vt 97.094182 1576.068433 0.000000
vt 100.000000 0.000000 0.000000
vt 97.094182 23.931566 0.000000
vt 88.545603 1553.527682 0.000000
vt 88.545603 46.472317 0.000000
vt 74.851075 1533.687734 0.000000
vt 74.851075 66.312266 0.000000
vt 56.806475 1517.701613 0.000000
vt 56.806475 82.298387 0.000000
vt 35.460489 1506.498375 0.000000
vt 35.460489 93.501624 0.000000
vt 12.053668 1500.729112 0.000000
vt 12.053668 99.270887 0.000000
vt -12.053668 1500.729112 0.000000
vt -12.053668 99.270887 0.000000
vt -35.460489 93.501624 0.000000
vt -35.460489 1506.498375 0.000000
vt -56.806475 82.298387 0.000000
vt -56.806475 1517.701613 0.000000
vt -74.851075 66.312266 0.000000
vt -74.851075 1533.687734 0.000000
vt -88.545603 46.472317 0.000000
vt -88.545603 1553.527682 0.000000
vt -97.094182 23.931566 0.000000
vt -97.094182 1576.068433 0.000000
vt -100.000000 0.000000 0.000000
vt -100.000000 1600.000000 0.000000
vt -97.094182 1623.931566 0.000000
vt -100.000000 2349.999999 0.000000
vt -88.545603 1646.472317 0.000000
vt -74.851075 1666.312265 0.000000
vt -56.806475 1682.298386 0.000000
vt -35.460489 1693.501624 0.000000
vt -62.940952 2398.296291 0.000000
vt -50.000000 2399.999999 0.000000
vt -12.053668 1699.270887 0.000000
vt 12.053668 1699.270887 0.000000
vt 50.000000 2399.999999 0.000000
vt 35.460489 1693.501624 0.000000
vt 62.940952 2398.296291 0.000000
vt 100.000000 2349.999999 0.000000
vt 75.000000 2393.301270 0.000000
vt 85.355339 2385.355338 0.000000
vt 93.301270 2374.999999 0.000000
vt 98.296291 2362.940952 0.000000
vt 56.806475 1682.298386 0.000000
vt 74.851075 1666.312265 0.000000
vt 88.545603 1646.472317 0.000000
vt 97.094182 1623.931566 0.000000
vt 100.000000 1600.000000 0.000000
vt -75.000000 2393.301270 0.000000
vt -85.355339 2385.355338 0.000000
vt -93.301270 2374.999999 0.000000
vt -98.296291 2362.940952 0.000000
vt -800.000000 289.993168 0.000000
vt -400.000000 289.993168 0.000000
vt -800.000000 314.159265 0.000000
vt -400.000000 314.159265 0.000000
vt -800.000000 -314.159265 0.000000
vt -400.000000 -314.159265 0.000000
vt -800.000000 -289.993168 0.000000
vt -400.000000 -289.993168 0.000000
vt -800.000000 -265.827071 0.000000
vt -400.000000 -265.827071 0.000000
vt -800.000000 -241.660973 0.000000
vt -400.000000 -241.660973 0.000000
vt -800.000000 -217.494876 0.000000
vt -400.000000 -217.494876 0.000000
vt -800.000000 -193.328779 0.000000
vt -400.000000 -193.328779 0.000000
vt -800.000000 -169.162681 0.000000
vt -400.000000 -169.162681 0.000000
vt -800.000000 -144.996584 0.000000
vt -400.000000 -144.996584 0.000000
vt -800.000000 -120.830487 0.000000
vt -400.000000 -120.830487 0.000000
vt -800.000000 -96.664389 0.000000
vt -400.000000 -96.664389 0.000000
vt -800.000000 -72.498292 0.000000
vt -400.000000 -72.498292 0.000000
vt -800.000000 -48.332195 0.000000
vt -400.000000 -48.332195 0.000000
vt -800.000000 -24.166097 0.000000
vt -400.000000 -24.166097 0.000000
vt -800.000000 0.000000 0.000000
vt -400.000000 0.000000 0.000000
vt -800.000000 24.166097 0.000000
vt -400.000000 24.166097 0.000000
vt -800.000000 48.332195 0.000000
vt -400.000000 48.332195 0.000000
vt -800.000000 72.498292 0.000000
vt -400.000000 72.498292 0.000000
vt -800.000000 96.664389 0.000000
vt -400.000000 96.664389 0.000000
vt -800.000000 120.830487 0.000000
vt -400.000000 120.830487 0.000000
vt -800.000000 144.996584 0.000000
vt -400.000000 144.996584 0.000000
vt -800.000000 169.162681 0.000000
vt -400.000000 169.162681 0.000000
vt -800.000000 193.328779 0.000000
vt -400.000000 193.328779 0.000000
vt -800.000000 217.494876 0.000000
vt -400.000000 217.494876 0.000000
vt -800.000000 241.660973 0.000000
vt -400.000000 241.660973 0.000000
vt -800.000000 265.827071 0.000000
vt -400.000000 265.827071 0.000000
vt -0.000000 -289.993168 0.000000
vt -0.000000 -314.159265 0.000000
vt -0.000000 314.159265 0.000000
vt -0.000000 289.993168 0.000000
vt -0.000000 265.827071 0.000000
vt -0.000000 241.660973 0.000000
vt -0.000000 217.494876 0.000000
vt -0.000000 193.328779 0.000000
vt -0.000000 169.162681 0.000000
vt -0.000000 144.996584 0.000000
vt -0.000000 120.830487 0.000000
vt -0.000000 96.664389 0.000000
vt -0.000000 72.498292 0.000000
vt -0.000000 48.332195 0.000000
vt -0.000000 24.166097 0.000000
vt -0.000000 0.000000 0.000000
vt -0.000000 -24.166097 0.000000
vt -0.000000 -48.332195 0.000000
vt -0.000000 -72.498292 0.000000
vt -0.000000 -96.664389 0.000000
vt -0.000000 -120.830487 0.000000
vt -0.000000 -144.996584 0.000000
vt -0.000000 -169.162681 0.000000
vt -0.000000 -193.328779 0.000000
vt -0.000000 -217.494876 0.000000
vt -0.000000 -241.660973 0.000000
vt -0.000000 -265.827071 0.000000
vt -97.094182 -23.931566 0.000000
vt 97.094182 -23.931566 0.000000
vt -100.000000 0.000000 0.000000
vt 100.000000 0.000000 0.000000
vt -97.094182 23.931566 0.000000
vt 97.094182 23.931566 0.000000
vt -88.545603 46.472317 0.000000
vt 88.545603 46.472317 0.000000
vt -74.851075 66.312266 0.000000
vt 74.851075 66.312266 0.000000
vt -56.806475 82.298387 0.000000
vt 56.806475 82.298387 0.000000
vt -35.460489 93.501624 0.000000
vt 35.460489 93.501624 0.000000
vt -12.053668 99.270887 0.000000
vt 12.053668 99.270887 0.000000
vt 88.545603 -46.472317 0.000000
vt -88.545603 -46.472317 0.000000
vt 74.851075 -66.312266 0.000000
vt -74.851075 -66.312266 0.000000
vt 56.806475 -82.298387 0.000000
vt -56.806475 -82.298387 0.000000
vt 35.460489 -93.501624 0.000000
vt -35.460489 -93.501624 0.000000
vt 12.053668 -99.270887 0.000000
vt -12.053668 -99.270887 0.000000
vt 100.000000 0.000000 0.000000
vt 97.094182 -23.931566 0.000000
vt 100.000000 -1600.000000 0.000000
vt 97.094182 -1576.068433 0.000000
vt 88.545603 -46.472317 0.000000
vt 88.545603 -1553.527682 0.000000
vt 74.851075 -66.312266 0.000000
vt 74.851075 -1533.687734 0.000000
vt 56.806475 -82.298387 0.000000
vt 56.806475 -1517.701613 0.000000
vt 35.460489 -93.501624 0.000000
vt 35.460489 -1506.498375 0.000000
vt 12.053668 -99.270887 0.000000
vt 12.053668 -1500.729112 0.000000
vt -12.053668 -99.270887 0.000000
vt -12.053668 -1500.729112 0.000000
vt -35.460489 -1506.498375 0.000000
vt -35.460489 -93.501624 0.000000
vt -56.806475 -1517.701613 0.000000
vt -56.806475 -82.298387 0.000000
vt -74.851075 -1533.687734 0.000000
vt -74.851075 -66.312266 0.000000
vt -88.545603 -1553.527682 0.000000
vt -88.545603 -46.472317 0.000000
vt -97.094182 -1576.068433 0.000000
vt -97.094182 -23.931566 0.000000
vt -100.000000 -1600.000000 0.000000
vt -100.000000 0.000000 0.000000
vt -800.000000 -24.166097 0.000000
vt -400.000000 -24.166097 0.000000
vt -800.000000 0.000000 0.000000
vt -400.000000 0.000000 0.000000
vt -800.000000 24.166097 0.000000
vt -400.000000 24.166097 0.000000
vt -800.000000 48.332195 0.000000
vt -400.000000 48.332195 0.000000
vt -800.000000 72.498292 0.000000
vt -400.000000 72.498292 0.000000
vt -800.000000 96.664389 0.000000
vt -400.000000 96.664389 0.000000
vt -800.000000 120.830487 0.000000
vt -400.000000 120.830487 0.000000
vt -800.000000 144.996584 0.000000
vt -400.000000 144.996584 0.000000
vt -800.000000 169.162681 0.000000
vt -400.000000 169.162681 0.000000
vt -800.000000 193.328779 0.000000
vt -400.000000 193.328779 0.000000
vt -800.000000 217.494876 0.000000
vt -400.000000 217.494876 0.000000
vt -800.000000 241.660973 0.000000
vt -400.000000 241.660973 0.000000
vt -800.000000 265.827071 0.000000
vt -400.000000 265.827071 0.000000
vt -800.000000 289.993168 0.000000
vt -400.000000 289.993168 0.000000
vt -800.000000 314.159265 0.000000
vt -400.000000 314.159265 0.000000
vt -800.000000 -314.159265 0.000000
vt -400.000000 -314.159265 0.000000
vt -800.000000 -289.993168 0.000000
vt -400.000000 -289.993168 0.000000
vt -800.000000 -265.827071 0.000000
vt -400.000000 -265.827071 0.000000
vt -800.000000 -241.660973 0.000000
vt -400.000000 -241.660973 0.000000
vt -800.000000 -217.494876 0.000000
vt -400.000000 -217.494876 0.000000
vt -800.000000 -193.328779 0.000000
vt -400.000000 -193.328779 0.000000
vt -800.000000 -169.162681 0.000000
vt -400.000000 -169.162681 0.000000
vt -800.000000 -144.996584 0.000000
vt -400.000000 -144.996584 0.000000
vt -800.000000 -120.830487 0.000000
vt -400.000000 -120.830487 0.000000
vt -800.000000 -96.664389 0.000000
vt -400.000000 -96.664389 0.000000
vt -800.000000 -72.498292 0.000000
vt -400.000000 -72.498292 0.000000
vt -800.000000 -48.332195 0.000000
vt -400.000000 -48.332195 0.000000
vt -0.000000 24.166097 0.000000
vt -0.000000 0.000000 0.000000
vt -0.000000 -24.166097 0.000000
vt -0.000000 -48.332195 0.000000
vt -0.000000 -72.498292 0.000000
vt -0.000000 -96.664389 0.000000
vt -0.000000 -120.830487 0.000000
vt -0.000000 -144.996584 0.000000
vt -0.000000 -169.162681 0.000000
vt -0.000000 -193.328779 0.000000
vt -0.000000 -217.494876 0.000000
vt -0.000000 -241.660973 0.000000
vt -0.000000 -265.827071 0.000000
vt -0.000000 -289.993168 0.000000
vt -0.000000 -314.159265 0.000000
vt -0.000000 314.159265 0.000000
vt -0.000000 289.993168 0.000000
vt -0.000000 265.827071 0.000000
vt -0.000000 241.660973 0.000000
vt -0.000000 217.494876 0.000000
vt -0.000000 193.328779 0.000000
vt -0.000000 169.162681 0.000000
vt -0.000000 144.996584 0.000000
vt -0.000000 120.830487 0.000000
vt -0.000000 96.664389 0.000000
vt -0.000000 72.498292 0.000000
vt -0.000000 48.332195 0.000000
vt 97.094182 23.931566 0.000000
vt -97.094182 23.931566 0.000000
vt 100.000000 0.000000 0.000000
vt -100.000000 0.000000 0.000000
vt 97.094182 -23.931566 0.000000
vt -97.094182 -23.931566 0.000000
vt 88.545603 -46.472317 0.000000
vt -88.545603 -46.472317 0.000000
vt 74.851075 -66.312266 0.000000
vt -74.851075 -66.312266 0.000000
vt 56.806475 -82.298387 0.000000
vt -56.806475 -82.298387 0.000000
vt 35.460489 -93.501624 0.000000
vt -35.460489 -93.501624 0.000000
vt 12.053668 -99.270887 0.000000
vt -12.053668 -99.270887 0.000000
vt -88.545603 46.472317 0.000000
vt 88.545603 46.472317 0.000000
vt -74.851075 66.312266 0.000000
vt 74.851075 66.312266 0.000000
vt -56.806475 82.298387 0.000000
vt 56.806475 82.298387 0.000000
vt -35.460489 93.501624 0.000000
vt 35.460489 93.501624 0.000000
vt -12.053668 99.270887 0.000000
vt 12.053668 99.270887 0.000000
vt 100.000000 -1600.000003 0.000000
vt 97.094182 -1623.931570 0.000000
vt 100.000000 -2350.000005 0.000000
vt 88.545603 -1646.472321 0.000000
vt 74.851075 -1666.312269 0.000000
vt 56.806475 -1682.298390 0.000000
vt 35.460489 -1693.501628 0.000000
vt 62.940952 -2398.296296 0.000000
vt 50.000000 -2400.000005 0.000000
vt 12.053668 -1699.270891 0.000000
vt -12.053668 -1699.270891 0.000000
vt -50.000000 -2400.000005 0.000000
vt -35.460489 -1693.501628 0.000000
vt -62.940952 -2398.296296 0.000000
vt -100.000000 -2350.000005 0.000000
vt -75.000000 -2393.301275 0.000000
vt -85.355339 -2385.355344 0.000000
vt -93.301270 -2375.000005 0.000000
vt -98.296291 -2362.940957 0.000000
vt -56.806475 -1682.298390 0.000000
vt -74.851075 -1666.312269 0.000000
vt -88.545603 -1646.472321 0.000000
vt -97.094182 -1623.931570 0.000000
vt -100.000000 -1600.000003 0.000000
vt 75.000000 -2393.301275 0.000000
vt 85.355339 -2385.355344 0.000000
vt 93.301270 -2375.000005 0.000000
vt 98.296291 -2362.940957 0.000000
vt 4700.000010 0.000000 0.000000
vt 2350.000005 50.000000 0.000000
vt 0.000000 0.000000 0.000000
vt 750.000002 50.000000 0.000000
vt 0.000000 50.000000 0.000000
vt 4700.000010 50.000000 0.000000
vt 3950.000008 50.000000 0.000000
vt -50.000000 -0.000000 0.000000
vt -0.000000 0.000000 0.000000
vt -50.000000 13.089969 0.000000
vt -0.000000 13.089969 0.000000
vt -50.000000 26.179939 0.000000
vt -0.000000 26.179939 0.000000
vt -50.000000 39.269908 0.000000
vt -0.000000 39.269908 0.000000
vt -50.000000 52.359878 0.000000
vt -0.000000 52.359878 0.000000
vt -50.000000 65.449847 0.000000
vt -0.000000 65.449847 0.000000
vt -50.000000 78.539816 0.000000
vt -0.000000 78.539816 0.000000
vt 0.000000 0.000000 0.000000
vt 100.000000 0.000000 0.000000
vt 0.000000 50.000000 0.000000
vt 100.000000 50.000000 0.000000
vt -50.000000 0.000000 0.000000
vt -0.000000 0.000000 0.000000
vt -50.000000 13.089969 0.000000
vt -0.000000 13.089969 0.000000
vt -50.000000 26.179939 0.000000
vt -0.000000 26.179939 0.000000
vt -50.000000 39.269908 0.000000
vt -0.000000 39.269908 0.000000
vt -50.000000 52.359878 0.000000
vt -0.000000 52.359878 0.000000
vt -50.000000 65.449847 0.000000
vt -0.000000 65.449847 0.000000
vt -50.000000 78.539816 0.000000
vt -0.000000 78.539816 0.000000
vt 4700.000010 0.000000 0.000000
vt 2350.000005 50.000000 0.000000
vt -0.000000 0.000000 0.000000
vt 750.000002 50.000000 0.000000
vt -0.000000 50.000000 0.000000
vt 4700.000010 50.000000 0.000000
vt 3950.000008 50.000000 0.000000
vt -50.000000 0.000000 0.000000
vt -0.000000 0.000000 0.000000
vt -50.000000 13.089969 0.000000
vt -0.000000 13.089969 0.000000
vt -50.000000 26.179939 0.000000
vt -0.000000 26.179939 0.000000
vt -50.000000 39.269908 0.000000
vt -0.000000 39.269908 0.000000
vt -50.000000 52.359878 0.000000
vt -0.000000 52.359878 0.000000
vt -50.000000 65.449847 0.000000
vt -0.000000 65.449847 0.000000
vt -50.000000 78.539816 0.000000
vt -0.000000 78.539816 0.000000
vt -0.000000 0.000000 0.000000
vt 100.000000 0.000000 0.000000
vt -0.000000 50.000000 0.000000
vt 100.000000 50.000000 0.000000
vt -50.000000 0.000000 0.000000
vt -0.000000 0.000000 0.000000
vt -50.000000 13.089969 0.000000
vt -0.000000 13.089969 0.000000
vt -50.000000 26.179939 0.000000
vt -0.000000 26.179939 0.000000
vt -50.000000 39.269908 0.000000
vt -0.000000 39.269908 0.000000
vt -50.000000 52.359878 0.000000
vt -0.000000 52.359878 0.000000
vt -50.000000 65.449847 0.000000
vt -0.000000 65.449847 0.000000
vt -50.000000 78.539816 0.000000
vt -0.000000 78.539816 0.000000
vt -62.940952 2398.296291 0.000000
vt -62.940952 -2398.296291 0.000000
vt -50.000000 2399.999999 0.000000
vt 62.940952 -2398.296291 0.000000
vt 50.000000 2399.999999 0.000000
vt 62.940952 2398.296291 0.000000
vt 75.000000 -2393.301270 0.000000
vt 75.000000 2393.301270 0.000000
vt 85.355339 -2385.355338 0.000000
vt 85.355339 2385.355338 0.000000
vt 93.301270 -2374.999999 0.000000
vt 100.000000 -2349.999999 0.000000
vt 98.296291 -2362.940952 0.000000
vt -75.000000 -2393.301270 0.000000
vt -75.000000 2393.301270 0.000000
vt -85.355339 -2385.355338 0.000000
vt -85.355339 2385.355338 0.000000
vt -93.301270 -2374.999999 0.000000
vt -100.000000 -2349.999999 0.000000
vt -98.296291 -2362.940952 0.000000
vt -93.301270 2374.999999 0.000000
vt -100.000000 2349.999999 0.000000
vt -98.296291 2362.940952 0.000000
vt -50.000000 -2399.999999 0.000000
vt 50.000000 -2399.999999 0.000000
vt 93.301270 2374.999999 0.000000
vt 100.000000 2349.999999 0.000000
vt 98.296291 2362.940952 0.000000
vn 97.094182 -23.931566 0.000000
vn 97.094182 -23.931566 0.000000
vn 100.000000 -0.000000 0.000000
vn 100.000000 -0.000000 0.000000
vn 97.094182 23.931566 0.000000
vn 97.094182 23.931566 0.000000
vn 88.545603 46.472317 0.000000
vn 88.545603 46.472317 0.000000
vn 74.851075 66.312266 0.000000
vn 74.851075 66.312266 0.000000
vn 56.806475 82.298387 0.000000
vn 56.806475 82.298387 0.000000
vn 35.460489 93.501624 0.000000
vn 35.460489 93.501624 0.000000
vn 12.053668 99.270887 0.000000
vn 12.053668 99.270887 0.000000
vn -12.053668 99.270887 -0.000000
vn -12.053668 99.270887 -0.000000
vn -35.460489 93.501624 -0.000000
vn -35.460489 93.501624 -0.000000
vn -56.806475 82.298387 -0.000000
vn -56.806475 82.298387 -0.000000
vn -74.851075 66.312266 -0.000000
vn -74.851075 66.312266 -0.000000
vn -88.545603 46.472317 -0.000000
vn -88.545603 46.472317 -0.000000
vn -97.094182 23.931566 -0.000000
vn -97.094182 23.931566 -0.000000
vn -100.000000 0.000000 0.000000
vn -100.000000 0.000000 0.000000
vn -97.094182 -23.931566 0.000000
vn -97.094182 -23.931566 0.000000
vn -88.545603 -46.472317 0.000000
vn -88.545603 -46.472317 0.000000
vn -74.851075 -66.312266 0.000000
vn -74.851075 -66.312266 0.000000
vn -56.806475 -82.298387 0.000000
vn -56.806475 -82.298387 0.000000
vn -35.460489 -93.501624 0.000000
vn -35.460489 -93.501624 0.000000
vn -12.053668 -99.270887 0.000000
vn -12.053668 -99.270887 0.000000
vn 12.053668 -99.270887 0.000000
vn 12.053668 -99.270887 0.000000
vn 35.460489 -93.501624 0.000000
vn 35.460489 -93.501624 0.000000
vn 56.806475 -82.298387 0.000000
vn 56.806475 -82.298387 0.000000
vn 74.851075 -66.312266 0.000000
vn 74.851075 -66.312266 0.000000
vn 88.545603 -46.472317 0.000000
vn 88.545603 -46.472317 0.000000
vn 97.094182 23.931566 0.000000
vn 100.000000 0.000000 0.000000
vn 97.094182 -23.931566 0.000000
vn 88.545603 -46.472317 0.000000
vn 74.851075 -66.312266 0.000000
vn 56.806475 -82.298387 0.000000
vn 35.460489 -93.501624 0.000000
vn 12.053668 -99.270887 0.000000
vn -12.053668 -99.270887 0.000000
vn -35.460489 -93.501624 0.000000
vn -56.806475 -82.298387 0.000000
vn -74.851075 -66.312266 0.000000
vn -88.545603 -46.472317 0.000000
vn -97.094182 -23.931566 0.000000
vn -100.000000 0.000000 0.000000
vn -97.094182 23.931566 -0.000000
vn -88.545603 46.472317 -0.000000
vn -74.851075 66.312266 -0.000000
vn -56.806475 82.298387 -0.000000
vn -35.460489 93.501624 -0.000000
vn -12.053668 99.270887 -0.000000
vn 12.053668 99.270887 0.000000
vn 35.460489 93.501624 0.000000
vn 56.806475 82.298387 0.000000
vn 74.851075 66.312266 0.000000
vn 88.545603 46.472317 0.000000
vn 0.000000 0.000000 100.000000
vn 0.000000 0.000000 100.000000
vn 0.000000 0.000000 100.000000
vn 0.000000 0.000000 100.000000
vn 0.000000 0.000000 100.000000
vn 0.000000 0.000000 100.000000
vn 0.000000 0.000000 100.000000
vn 0.000000 0.000000 100.000000
vn 0.000000 0.000000 100.000000
vn 0.000000 0.000000 100.000000
vn 0.000000 0.000000 100.000000
vn 0.000000 0.000000 100.000000
vn 0.000000 0.000000 100.000000
vn 0.000000 0.000000 100.000000
vn 0.000000 0.000000 100.000000
vn 0.000000 0.000000 100.000000
vn 0.000000 0.000000 100.000000
vn 0.000000 0.000000 100.000000
vn 0.000000 0.000000 100.000000
vn 0.000000 0.000000 100.000000
vn 0.000000 0.000000 100.000000
vn 0.000000 0.000000 100.000000
vn 0.000000 0.000000 100.000000
vn 0.000000 0.000000 100.000000
vn 0.000000 0.000000 100.000000
vn 0.000000 0.000000 100.000000
vn 0.000000 0.000000 100.000000
vn 0.000000 0.000000 100.000000
vn 0.000000 0.000000 100.000000
vn 0.000000 0.000000 100.000000
vn 0.000000 0.000000 100.000000
vn 0.000000 0.000000 100.000000
vn 0.000000 0.000000 100.000000
vn 0.000000 0.000000 100.000000
vn 0.000000 0.000000 100.000000
vn 0.000000 0.000000 100.000000
vn 0.000000 0.000000 100.000000
vn 0.000000 0.000000 100.000000
vn 0.000000 0.000000 100.000000
vn 0.000000 0.000000 100.000000
vn 0.000000 0.000000 100.000000
vn 0.000000 0.000000 100.000000
vn 0.000000 0.000000 100.000000
vn 0.000000 0.000000 100.000000
vn 0.000000 0.000000 100.000000
vn 0.000000 0.000000 100.000000
vn 0.000000 0.000000 100.000000
vn 0.000000 0.000000 100.000000
vn 0.000000 0.000000 100.000000
vn 0.000000 0.000000 100.000000
vn 0.000000 0.000000 100.000000
vn 0.000000 0.000000 100.000000
vn 0.000000 0.000000 100.000000
vn 0.000000 0.000000 100.000000
vn 0.000000 0.000000 100.000000
vn 0.000000 0.000000 100.000000
vn 0.000000 0.000000 100.000000
vn 0.000000 0.000000 100.000000
vn 0.000000 0.000000 100.000000
vn 0.000000 0.000000 100.000000
vn 0.000000 0.000000 100.000000
vn 0.000000 0.000000 100.000000
vn 0.000000 0.000000 100.000000
vn 0.000000 0.000000 100.000000
vn 0.000000 0.000000 100.000000
vn 0.000000 0.000000 100.000000
vn 0.000000 0.000000 100.000000
vn 0.000000 0.000000 100.000000
vn 0.000000 0.000000 100.000000
vn 0.000000 0.000000 100.000000
vn 0.000000 0.000000 100.000000
vn 0.000000 0.000000 100.000000
vn 0.000000 0.000000 100.000000
vn 0.000000 0.000000 100.000000
vn 0.000000 0.000000 100.000000
vn 0.000000 0.000000 100.000000
vn 0.000000 0.000000 100.000000
vn 0.000000 0.000000 100.000000
vn 0.000000 0.000000 100.000000
vn 0.000000 0.000000 100.000000
vn 97.094182 -23.931566 0.000000
vn 97.094182 -23.931566 0.000000
vn 100.000000 -0.000000 0.000000
vn 100.000000 -0.000000 0.000000
vn 97.094182 23.931566 0.000000
vn 97.094182 23.931566 0.000000
vn 88.545603 46.472317 0.000000
vn 88.545603 46.472317 0.000000
vn 74.851075 66.312266 0.000000
vn 74.851075 66.312266 0.000000
vn 56.806475 82.298387 0.000000
vn 56.806475 82.298387 0.000000
vn 35.460489 93.501624 0.000000
vn 35.460489 93.501624 0.000000
vn 12.053668 99.270887 0.000000
vn 12.053668 99.270887 0.000000
vn -12.053668 99.270887 -0.000000
vn -12.053668 99.270887 -0.000000
vn -35.460489 93.501624 -0.000000
vn -35.460489 93.501624 -0.000000
vn -56.806475 82.298387 -0.000000
vn -56.806475 82.298387 -0.000000
vn -74.851075 66.312266 -0.000000
vn -74.851075 66.312266 -0.000000
vn -88.545603 46.472317 -0.000000
vn -88.545603 46.472317 -0.000000
vn -97.094182 23.931566 -0.000000
vn -97.094182 23.931566 -0.000000
vn -100.000000 0.000000 0.000000
vn -100.000000 0.000000 0.000000
vn -97.094182 -23.931566 0.000000
vn -97.094182 -23.931566 0.000000
vn -88.545603 -46.472317 0.000000
vn -88.545603 -46.472317 0.000000
vn -74.851075 -66.312266 0.000000
vn -74.851075 -66.312266 0.000000
vn -56.806475 -82.298387 0.000000
vn -56.806475 -82.298387 0.000000
vn -35.460489 -93.501624 0.000000
vn -35.460489 -93.501624 0.000000
vn -12.053668 -99.270887 0.000000
vn -12.053668 -99.270887 0.000000
vn 12.053668 -99.270887 0.000000
vn 12.053668 -99.270887 0.000000
vn 35.460489 -93.501624 0.000000
vn 35.460489 -93.501624 0.000000
vn 56.806475 -82.298387 0.000000
vn 56.806475 -82.298387 0.000000
vn 74.851075 -66.312266 0.000000
vn 74.851075 -66.312266 0.000000
vn 88.545603 -46.472317 0.000000
vn 88.545603 -46.472317 0.000000
vn 97.094182 23.931566 0.000000
vn 100.000000 0.000000 0.000000
vn 97.094182 -23.931566 0.000000
vn 88.545603 -46.472317 0.000000
vn 74.851075 -66.312266 0.000000
vn 56.806475 -82.298387 0.000000
vn 35.460489 -93.501624 0.000000
vn 12.053668 -99.270887 0.000000
vn -12.053668 -99.270887 0.000000
vn -35.460489 -93.501624 0.000000
vn -56.806475 -82.298387 0.000000
vn -74.851075 -66.312266 0.000000
vn -88.545603 -46.472317 0.000000
vn -97.094182 -23.931566 0.000000
vn -100.000000 0.000000 0.000000
vn -97.094182 23.931566 -0.000000
vn -88.545603 46.472317 -0.000000
vn -74.851075 66.312266 -0.000000
vn -56.806475 82.298387 -0.000000
vn -35.460489 93.501624 -0.000000
vn -12.053668 99.270887 -0.000000
vn 12.053668 99.270887 0.000000
vn 35.460489 93.501624 0.000000
vn 56.806475 82.298387 0.000000
vn 74.851075 66.312266 0.000000
vn 88.545603 46.472317 0.000000
vn 0.000000 0.000000 100.000000
vn 0.000000 0.000000 100.000000
vn 0.000000 0.000000 100.000000
vn 0.000000 0.000000 100.000000
vn 0.000000 0.000000 100.000000
vn 0.000000 0.000000 100.000000
vn 0.000000 0.000000 100.000000
vn 0.000000 0.000000 100.000000
vn 0.000000 0.000000 100.000000
vn 0.000000 0.000000 100.000000
vn 0.000000 0.000000 100.000000
vn 0.000000 0.000000 100.000000
vn 0.000000 0.000000 100.000000
vn 0.000000 0.000000 100.000000
vn 0.000000 0.000000 100.000000
vn 0.000000 0.000000 100.000000
vn 0.000000 0.000000 100.000000
vn 0.000000 0.000000 100.000000
vn 0.000000 0.000000 100.000000
vn 0.000000 0.000000 100.000000
vn 0.000000 0.000000 100.000000
vn 0.000000 0.000000 100.000000
vn 0.000000 0.000000 100.000000
vn 0.000000 0.000000 100.000000
vn 0.000000 0.000000 100.000000
vn 0.000000 0.000000 100.000000
vn 0.000000 0.000000 100.000000
vn 0.000000 0.000000 100.000000
vn 0.000000 0.000000 100.000000
vn 0.000000 0.000000 100.000000
vn 0.000000 0.000000 100.000000
vn 0.000000 0.000000 100.000000
vn 0.000000 0.000000 100.000000
vn 0.000000 0.000000 100.000000
vn 0.000000 0.000000 100.000000
vn 0.000000 0.000000 100.000000
vn 0.000000 0.000000 100.000000
vn 0.000000 0.000000 100.000000
vn 0.000000 0.000000 100.000000
vn 0.000000 0.000000 100.000000
vn 0.000000 0.000000 100.000000
vn 0.000000 0.000000 100.000000
vn 0.000000 0.000000 100.000000
vn 0.000000 0.000000 100.000000
vn 0.000000 0.000000 100.000000
vn 0.000000 0.000000 100.000000
vn 0.000000 0.000000 100.000000
vn 0.000000 0.000000 100.000000
vn 0.000000 0.000000 100.000000
vn 0.000000 0.000000 100.000000
vn 0.000000 0.000000 100.000000
vn 0.000000 0.000000 100.000000
vn -97.094182 23.931566 -0.000000
vn -97.094182 23.931566 -0.000000
vn -100.000000 0.000000 0.000000
vn -100.000000 0.000000 0.000000
vn -97.094182 -23.931566 0.000000
vn -97.094182 -23.931566 0.000000
vn -88.545603 -46.472317 0.000000
vn -88.545603 -46.472317 0.000000
vn -74.851075 -66.312266 0.000000
vn -74.851075 -66.312266 0.000000
vn -56.806475 -82.298387 0.000000
vn -56.806475 -82.298387 0.000000
vn -35.460489 -93.501624 0.000000
vn -35.460489 -93.501624 0.000000
vn -12.053668 -99.270887 0.000000
vn -12.053668 -99.270887 0.000000
vn 12.053668 -99.270887 0.000000
vn 12.053668 -99.270887 0.000000
vn 35.460489 -93.501624 0.000000
vn 35.460489 -93.501624 0.000000
vn 56.806475 -82.298387 0.000000
vn 56.806475 -82.298387 0.000000
vn 74.851075 -66.312266 0.000000
vn 74.851075 -66.312266 0.000000
vn 88.545603 -46.472317 0.000000
vn 88.545603 -46.472317 0.000000
vn 97.094182 -23.931566 0.000000
vn 97.094182 -23.931566 0.000000
vn 100.000000 -0.000000 0.000000
vn 100.000000 -0.000000 0.000000
vn 97.094182 23.931566 0.000000
vn 97.094182 23.931566 0.000000
vn 88.545603 46.472317 0.000000
vn 88.545603 46.472317 0.000000
vn 74.851075 66.312266 0.000000
vn 74.851075 66.312266 0.000000
vn 56.806475 82.298387 0.000000
vn 56.806475 82.298387 0.000000
vn 35.460489 93.501624 0.000000
vn 35.460489 93.501624 0.000000
vn 12.053668 99.270887 0.000000
vn 12.053668 99.270887 0.000000
vn -12.053668 99.270887 -0.000000
vn -12.053668 99.270887 -0.000000
vn -35.460489 93.501624 -0.000000
vn -35.460489 93.501624 -0.000000
vn -56.806475 82.298387 -0.000000
vn -56.806475 82.298387 -0.000000
vn -74.851075 66.312266 -0.000000
vn -74.851075 66.312266 -0.000000
vn -88.545603 46.472317 -0.000000
vn -88.545603 46.472317 -0.000000
vn -97.094182 -23.931566 0.000000
vn -100.000000 0.000000 0.000000
vn -97.094182 23.931566 -0.000000
vn -88.545603 46.472317 -0.000000
vn -74.851075 66.312266 -0.000000
vn -56.806475 82.298387 -0.000000
vn -35.460489 93.501624 -0.000000
vn -12.053668 99.270887 -0.000000
vn 12.053668 99.270887 0.000000
vn 35.460489 93.501624 0.000000
vn 56.806475 82.298387 0.000000
vn 74.851075 66.312266 0.000000
vn 88.545603 46.472317 0.000000
vn 97.094182 23.931566 0.000000
vn 100.000000 0.000000 0.000000
vn 97.094182 -23.931566 0.000000
vn 88.545603 -46.472317 0.000000
vn 74.851075 -66.312266 0.000000
vn 56.806475 -82.298387 0.000000
vn 35.460489 -93.501624 0.000000
vn 12.053668 -99.270887 0.000000
vn -12.053668 -99.270887 0.000000
vn -35.460489 -93.501624 0.000000
vn -56.806475 -82.298387 0.000000
vn -74.851075 -66.312266 0.000000
vn -88.545603 -46.472317 0.000000
vn 0.000000 0.000000 100.000000
vn 0.000000 0.000000 100.000000
vn 0.000000 0.000000 100.000000
vn 0.000000 0.000000 100.000000
vn 0.000000 0.000000 100.000000
vn 0.000000 0.000000 100.000000
vn 0.000000 0.000000 100.000000
vn 0.000000 0.000000 100.000000
vn 0.000000 0.000000 100.000000
vn 0.000000 0.000000 100.000000
vn 0.000000 0.000000 100.000000
vn 0.000000 0.000000 100.000000
vn 0.000000 0.000000 100.000000
vn 0.000000 0.000000 100.000000
vn 0.000000 0.000000 100.000000
vn 0.000000 0.000000 100.000000
vn 0.000000 0.000000 100.000000
vn 0.000000 0.000000 100.000000
vn 0.000000 0.000000 100.000000
vn 0.000000 0.000000 100.000000
vn 0.000000 0.000000 100.000000
vn 0.000000 0.000000 100.000000
vn 0.000000 0.000000 100.000000
vn 0.000000 0.000000 100.000000
vn 0.000000 0.000000 100.000000
vn 0.000000 0.000000 100.000000
vn 0.000000 0.000000 100.000000
vn 0.000000 0.000000 100.000000
vn 0.000000 0.000000 100.000000
vn 0.000000 0.000000 100.000000
vn 0.000000 0.000000 100.000000
vn 0.000000 0.000000 100.000000
vn 0.000000 0.000000 100.000000
vn 0.000000 0.000000 100.000000
vn 0.000000 0.000000 100.000000
vn 0.000000 0.000000 100.000000
vn 0.000000 0.000000 100.000000
vn 0.000000 0.000000 100.000000
vn 0.000000 0.000000 100.000000
vn 0.000000 0.000000 100.000000
vn 0.000000 0.000000 100.000000
vn 0.000000 0.000000 100.000000
vn 0.000000 0.000000 100.000000
vn 0.000000 0.000000 100.000000
vn 0.000000 0.000000 100.000000
vn 0.000000 0.000000 100.000000
vn 0.000000 0.000000 100.000000
vn 0.000000 0.000000 100.000000
vn 0.000000 0.000000 100.000000
vn 0.000000 0.000000 100.000000
vn 0.000000 0.000000 100.000000
vn 0.000000 0.000000 100.000000
vn 100.000000 0.000000 0.000000
vn 100.000000 0.000000 0.000000
vn 100.000000 0.000000 0.000000
vn 100.000000 0.000000 0.000000
vn -0.000000 -100.000000 0.000000
vn -0.000000 -100.000000 0.000000
vn 25.881905 -96.592583 0.000000
vn 25.881905 -96.592583 0.000000
vn 50.000000 -86.602540 0.000000
vn 50.000000 -86.602540 0.000000
vn 70.710678 -70.710678 0.000000
vn 70.710678 -70.710678 0.000000
vn 86.602540 -50.000000 0.000000
vn 86.602540 -50.000000 0.000000
vn 96.592583 -25.881905 0.000000
vn 96.592583 -25.881905 0.000000
vn -0.000000 -100.000000 0.000000
vn -0.000000 -100.000000 0.000000
vn -100.000000 0.000000 -0.000000
vn -100.000000 0.000000 -0.000000
vn -96.592583 -25.881905 0.000000
vn -96.592583 -25.881905 0.000000
vn -86.602540 -50.000000 0.000000
vn -86.602540 -50.000000 0.000000
vn -70.710678 -70.710678 0.000000
vn -70.710678 -70.710678 0.000000
vn -50.000000 -86.602540 0.000000
vn -50.000000 -86.602540 0.000000
vn -25.881905 -96.592583 0.000000
vn -25.881905 -96.592583 0.000000
vn -100.000000 -0.000000 0.000000
vn -100.000000 -0.000000 0.000000
vn 0.000000 100.000000 0.000000
vn 0.000000 100.000000 0.000000
vn -25.881905 96.592583 -0.000000
vn -25.881905 96.592583 -0.000000
vn -50.000000 86.602540 -0.000000
vn -50.000000 86.602540 -0.000000
vn -70.710678 70.710678 -0.000000
vn -70.710678 70.710678 -0.000000
vn -86.602540 50.000000 -0.000000
vn -86.602540 50.000000 -0.000000
vn -96.592583 25.881905 -0.000000
vn -96.592583 25.881905 -0.000000
vn 0.000000 100.000000 0.000000
vn 0.000000 100.000000 0.000000
vn 96.592583 25.881905 0.000000
vn 96.592583 25.881905 0.000000
vn 86.602540 50.000000 0.000000
vn 86.602540 50.000000 0.000000
vn 70.710678 70.710678 0.000000
vn 70.710678 70.710678 0.000000
vn 50.000000 86.602540 0.000000
vn 50.000000 86.602540 0.000000
vn 25.881905 96.592583 0.000000
vn 25.881905 96.592583 0.000000
vn -0.000000 0.000000 -100.000000
vn -0.000000 0.000000 -100.000000
vn -0.000000 0.000000 -100.000000
vn -0.000000 0.000000 -100.000000
vn -0.000000 0.000000 -100.000000
vn -0.000000 0.000000 -100.000000
vn -0.000000 0.000000 -100.000000
vn -0.000000 0.000000 -100.000000
vn -0.000000 0.000000 -100.000000
vn -0.000000 0.000000 -100.000000
vn -0.000000 0.000000 -100.000000
vn -0.000000 0.000000 -100.000000
vn -0.000000 0.000000 -100.000000
vn -0.000000 0.000000 -100.000000
vn -0.000000 0.000000 -100.000000
vn -0.000000 0.000000 -100.000000
vn -0.000000 0.000000 -100.000000
vn -0.000000 0.000000 -100.000000
vn -0.000000 0.000000 -100.000000
vn -0.000000 0.000000 -100.000000
vn -0.000000 0.000000 -100.000000
vn -0.000000 0.000000 -100.000000
vn -0.000000 0.000000 -100.000000
vn -0.000000 0.000000 -100.000000
vn -0.000000 0.000000 -100.000000
vn -0.000000 0.000000 -100.000000
vn -0.000000 0.000000 -100.000000
vn -0.000000 0.000000 -100.000000
usemtl Steel_-_Satin
f 2/1/1 54/2/2 1/3/3
f 1/3/3 54/2/2 53/4/4
f 1/5/3 53/6/4 26/7/5
f 26/7/5 53/6/4 78/8/6
f 26/7/5 78/8/6 25/9/7
f 25/9/7 78/8/6 77/10/8
f 25/9/7 77/10/8 24/11/9
f 24/11/9 77/10/8 76/12/10
f 24/11/9 76/12/10 23/13/11
f 23/13/11 76/12/10 75/14/12
f 23/13/11 75/14/12 22/15/13
f 22/15/13 75/14/12 74/16/14
f 22/15/13 74/16/14 21/17/15
f 21/17/15 74/16/14 73/18/16
f 21/17/15 73/18/16 20/19/17
f 20/19/17 73/18/16 72/20/18
f 20/19/17 72/20/18 19/21/19
f 19/21/19 72/20/18 71/22/20
f 19/21/19 71/22/20 18/23/21
f 18/23/21 71/22/20 70/24/22
f 18/23/21 70/24/22 17/25/23
f 17/25/23 70/24/22 69/26/24
f 17/25/23 69/26/24 16/27/25
f 16/27/25 69/26/24 68/28/26
f 16/27/25 68/28/26 15/29/27
f 15/29/27 68/28/26 67/30/28
f 15/29/27 67/30/28 14/31/29
f 14/31/29 67/30/28 66/32/30
f 14/31/29 66/32/30 13/33/31
f 13/33/31 66/32/30 65/34/32
f 13/33/31 65/34/32 12/35/33
f 12/35/33 65/34/32 64/36/34
f 12/35/33 64/36/34 11/37/35
f 11/37/35 64/36/34 63/38/36
f 11/37/35 63/38/36 10/39/37
f 10/39/37 63/38/36 62/40/38
f 10/39/37 62/40/38 9/41/39
f 9/41/39 62/40/38 61/42/40
f 9/41/39 61/42/40 8/43/41
f 8/43/41 61/42/40 60/44/42
f 8/43/41 60/44/42 7/45/43
f 7/45/43 60/44/42 59/46/44
f 7/45/43 59/46/44 6/47/45
f 6/47/45 59/46/44 58/48/46
f 6/47/45 58/48/46 5/49/47
f 5/49/47 58/48/46 57/50/48
f 5/49/47 57/50/48 4/51/49
f 4/51/49 57/50/48 56/52/50
f 4/51/49 56/52/50 3/53/51
f 3/53/51 56/52/50 55/54/52
f 3/53/51 55/54/52 2/1/1
f 2/1/1 55/54/52 54/2/2
f 28/55/53 78/8/6 27/56/54
f 27/56/54 78/8/6 53/6/4
f 27/57/54 53/4/4 52/58/55
f 52/58/55 53/4/4 54/2/2
f 52/58/55 54/2/2 51/59/56
f 51/59/56 54/2/2 55/54/52
f 51/59/56 55/54/52 50/60/57
f 50/60/57 55/54/52 56/52/50
f 50/60/57 56/52/50 49/61/58
f 49/61/58 56/52/50 57/50/48
f 49/61/58 57/50/48 48/62/59
f 48/62/59 57/50/48 58/48/46
f 48/62/59 58/48/46 47/63/60
f 47/63/60 58/48/46 59/46/44
f 47/63/60 59/46/44 46/64/61
f 46/64/61 59/46/44 60/44/42
f 46/64/61 60/44/42 45/65/62
f 45/65/62 60/44/42 61/42/40
f 45/65/62 61/42/40 44/66/63
f 44/66/63 61/42/40 62/40/38
f 44/66/63 62/40/38 43/67/64
f 43/67/64 62/40/38 63/38/36
f 43/67/64 63/38/36 42/68/65
f 42/68/65 63/38/36 64/36/34
f 42/68/65 64/36/34 41/69/66
f 41/69/66 64/36/34 65/34/32
f 41/69/66 65/34/32 40/70/67
f 40/70/67 65/34/32 66/32/30
f 40/70/67 66/32/30 39/71/68
f 39/71/68 66/32/30 67/30/28
f 39/71/68 67/30/28 38/72/69
f 38/72/69 67/30/28 68/28/26
f 38/72/69 68/28/26 37/73/70
f 37/73/70 68/28/26 69/26/24
f 37/73/70 69/26/24 36/74/71
f 36/74/71 69/26/24 70/24/22
f 36/74/71 70/24/22 35/75/72
f 35/75/72 70/24/22 71/22/20
f 35/75/72 71/22/20 34/76/73
f 34/76/73 71/22/20 72/20/18
f 34/76/73 72/20/18 33/77/74
f 33/77/74 72/20/18 73/18/16
f 33/77/74 73/18/16 32/78/75
f 32/78/75 73/18/16 74/16/14
f 32/78/75 74/16/14 31/79/76
f 31/79/76 74/16/14 75/14/12
f 31/79/76 75/14/12 30/80/77
f 30/80/77 75/14/12 76/12/10
f 30/80/77 76/12/10 29/81/78
f 29/81/78 76/12/10 77/10/8
f 29/81/78 77/10/8 28/55/53
f 28/55/53 77/10/8 78/8/6
f 26/82/79 15/83/80 1/84/81
f 1/84/81 15/83/80 14/85/82
f 1/84/81 14/85/82 2/86/83
f 2/86/83 14/85/82 13/87/84
f 2/86/83 13/87/84 3/88/85
f 3/88/85 13/87/84 12/89/86
f 3/88/85 12/89/86 4/90/87
f 4/90/87 12/89/86 11/91/88
f 4/90/87 11/91/88 5/92/89
f 5/92/89 11/91/88 10/93/90
f 5/92/89 10/93/90 6/94/91
f 6/94/91 10/93/90 9/95/92
f 6/94/91 9/95/92 7/96/93
f 7/96/93 9/95/92 8/97/94
f 15/83/80 26/82/79 16/98/95
f 16/98/95 26/82/79 25/99/96
f 16/98/95 25/99/96 17/100/97
f 17/100/97 25/99/96 24/101/98
f 17/100/97 24/101/98 18/102/99
f 18/102/99 24/101/98 23/103/100
f 18/102/99 23/103/100 19/104/101
f 19/104/101 23/103/100 22/105/102
f 19/104/101 22/105/102 20/106/103
f 20/106/103 22/105/102 21/107/104
f 27/108/105 52/109/106 92/110/107
f 92/110/107 52/109/106 91/111/108
f 91/111/108 52/109/106 51/112/109
f 91/111/108 51/112/109 90/113/110
f 90/113/110 51/112/109 50/114/111
f 90/113/110 50/114/111 89/115/112
f 89/115/112 50/114/111 49/116/113
f 89/115/112 49/116/113 88/117/114
f 88/117/114 49/116/113 48/118/115
f 88/117/114 48/118/115 87/119/116
f 87/119/116 48/118/115 47/120/117
f 87/119/116 47/120/117 86/121/118
f 86/121/118 47/120/117 46/122/119
f 86/121/118 46/122/119 85/123/120
f 85/123/120 46/122/119 84/124/121
f 84/124/121 46/122/119 45/125/122
f 84/124/121 45/125/122 83/126/123
f 83/126/123 45/125/122 44/127/124
f 83/126/123 44/127/124 82/128/125
f 82/128/125 44/127/124 43/129/126
f 82/128/125 43/129/126 81/130/127
f 81/130/127 43/129/126 42/131/128
f 81/130/127 42/131/128 80/132/129
f 80/132/129 42/131/128 41/133/130
f 80/132/129 41/133/130 79/134/131
f 79/134/131 41/133/130 40/135/132
f 40/135/132 39/136/133 106/137/134
f 106/137/134 39/136/133 38/138/135
f 106/137/134 38/138/135 37/139/136
f 37/139/136 36/140/137 106/137/134
f 106/137/134 36/140/137 35/141/138
f 106/137/134 35/141/138 101/142/139
f 101/142/139 35/141/138 100/143/140
f 100/143/140 35/141/138 34/144/141
f 100/143/140 34/144/141 33/145/142
f 100/143/140 33/145/142 99/146/143
f 99/146/143 33/145/142 32/147/144
f 99/146/143 32/147/144 98/148/145
f 98/148/145 32/147/144 93/149/146
f 98/148/145 93/149/146 97/150/147
f 97/150/147 93/149/146 96/151/148
f 96/151/148 93/149/146 95/152/149
f 95/152/149 93/149/146 94/153/150
f 32/147/144 31/154/151 93/149/146
f 93/149/146 31/154/151 30/155/152
f 93/149/146 30/155/152 29/156/153
f 29/156/153 28/157/154 93/149/146
f 93/149/146 28/157/154 27/158/105
f 101/142/139 102/159/155 106/137/134
f 106/137/134 102/159/155 103/160/156
f 106/137/134 103/160/156 104/161/157
f 104/161/157 105/162/158 106/137/134
f 108/163/159 146/164/160 107/165/161
f 107/165/161 146/164/160 145/166/162
f 107/167/161 145/168/162 132/169/163
f 132/169/163 145/168/162 170/170/164
f 132/169/163 170/170/164 131/171/165
f 131/171/165 170/170/164 169/172/166
f 131/171/165 169/172/166 130/173/167
f 130/173/167 169/172/166 168/174/168
f 130/173/167 168/174/168 129/175/169
f 129/175/169 168/174/168 167/176/170
f 129/175/169 167/176/170 128/177/171
f 128/177/171 167/176/170 166/178/172
f 128/177/171 166/178/172 127/179/173
f 127/179/173 166/178/172 165/180/174
f 127/179/173 165/180/174 126/181/175
f 126/181/175 165/180/174 164/182/176
f 126/181/175 164/182/176 125/183/177
f 125/183/177 164/182/176 163/184/178
f 125/183/177 163/184/178 124/185/179
f 124/185/179 163/184/178 162/186/180
f 124/185/179 162/186/180 123/187/181
f 123/187/181 162/186/180 161/188/182
f 123/187/181 161/188/182 122/189/183
f 122/189/183 161/188/182 160/190/184
f 122/189/183 160/190/184 121/191/185
f 121/191/185 160/190/184 159/192/186
f 121/191/185 159/192/186 120/193/187
f 120/193/187 159/192/186 158/194/188
f 120/193/187 158/194/188 119/195/189
f 119/195/189 158/194/188 157/196/190
f 119/195/189 157/196/190 118/197/191
f 118/197/191 157/196/190 156/198/192
f 118/197/191 156/198/192 117/199/193
f 117/199/193 156/198/192 155/200/194
f 117/199/193 155/200/194 116/201/195
f 116/201/195 155/200/194 154/202/196
f 116/201/195 154/202/196 115/203/197
f 115/203/197 154/202/196 153/204/198
f 115/203/197 153/204/198 114/205/199
f 114/205/199 153/204/198 152/206/200
f 114/205/199 152/206/200 113/207/201
f 113/207/201 152/206/200 151/208/202
f 113/207/201 151/208/202 112/209/203
f 112/209/203 151/208/202 150/210/204
f 112/209/203 150/210/204 111/211/205
f 111/211/205 150/210/204 149/212/206
f 111/211/205 149/212/206 110/213/207
f 110/213/207 149/212/206 148/214/208
f 110/213/207 148/214/208 109/215/209
f 109/215/209 148/214/208 147/216/210
f 109/215/209 147/216/210 108/163/159
f 108/163/159 147/216/210 146/164/160
f 91/217/211 170/170/164 92/218/212
f 92/218/212 170/170/164 145/168/162
f 92/219/212 145/166/162 144/220/213
f 144/220/213 145/166/162 146/164/160
f 144/220/213 146/164/160 143/221/214
f 143/221/214 146/164/160 147/216/210
f 143/221/214 147/216/210 142/222/215
f 142/222/215 147/216/210 148/214/208
f 142/222/215 148/214/208 141/223/216
f 141/223/216 148/214/208 149/212/206
f 141/223/216 149/212/206 140/224/217
f 140/224/217 149/212/206 150/210/204
f 140/224/217 150/210/204 139/225/218
f 139/225/218 150/210/204 151/208/202
f 139/225/218 151/208/202 138/226/219
f 138/226/219 151/208/202 152/206/200
f 138/226/219 152/206/200 137/227/220
f 137/227/220 152/206/200 153/204/198
f 137/227/220 153/204/198 136/228/221
f 136/228/221 153/204/198 154/202/196
f 136/228/221 154/202/196 135/229/222
f 135/229/222 154/202/196 155/200/194
f 135/229/222 155/200/194 134/230/223
f 134/230/223 155/200/194 156/198/192
f 134/230/223 156/198/192 133/231/224
f 133/231/224 156/198/192 157/196/190
f 133/231/224 157/196/190 79/232/225
f 79/232/225 157/196/190 158/194/188
f 79/232/225 158/194/188 80/233/226
f 80/233/226 158/194/188 159/192/186
f 80/233/226 159/192/186 81/234/227
f 81/234/227 159/192/186 160/190/184
f 81/234/227 160/190/184 82/235/228
f 82/235/228 160/190/184 161/188/182
f 82/235/228 161/188/182 83/236/229
f 83/236/229 161/188/182 162/186/180
f 83/236/229 162/186/180 84/237/230
f 84/237/230 162/186/180 163/184/178
f 84/237/230 163/184/178 85/238/231
f 85/238/231 163/184/178 164/182/176
f 85/238/231 164/182/176 86/239/232
f 86/239/232 164/182/176 165/180/174
f 86/239/232 165/180/174 87/240/233
f 87/240/233 165/180/174 166/178/172
f 87/240/233 166/178/172 88/241/234
f 88/241/234 166/178/172 167/176/170
f 88/241/234 167/176/170 89/242/235
f 89/242/235 167/176/170 168/174/168
f 89/242/235 168/174/168 90/243/236
f 90/243/236 168/174/168 169/172/166
f 90/243/236 169/172/166 91/217/211
f 91/217/211 169/172/166 170/170/164
f 132/244/237 121/245/238 107/246/239
f 107/246/239 121/245/238 120/247/240
f 107/246/239 120/247/240 108/248/241
f 108/248/241 120/247/240 119/249/242
f 108/248/241 119/249/242 109/250/243
f 109/250/243 119/249/242 118/251/244
f 109/250/243 118/251/244 110/252/245
f 110/252/245 118/251/244 117/253/246
f 110/252/245 117/253/246 111/254/247
f 111/254/247 117/253/246 116/255/248
f 111/254/247 116/255/248 112/256/249
f 112/256/249 116/255/248 115/257/250
f 112/256/249 115/257/250 113/258/251
f 113/258/251 115/257/250 114/259/252
f 121/245/238 132/244/237 122/260/253
f 122/260/253 132/244/237 131/261/254
f 122/260/253 131/261/254 123/262/255
f 123/262/255 131/261/254 130/263/256
f 123/262/255 130/263/256 124/264/257
f 124/264/257 130/263/256 129/265/258
f 124/264/257 129/265/258 125/266/259
f 125/266/259 129/265/258 128/267/260
f 125/266/259 128/267/260 126/268/261
f 126/268/261 128/267/260 127/269/262
f 92/270/107 144/271/263 184/272/264
f 184/272/264 144/271/263 183/273/265
f 183/273/265 144/271/263 143/274/266
f 183/273/265 143/274/266 182/275/267
f 182/275/267 143/274/266 142/276/268
f 182/275/267 142/276/268 181/277/269
f 181/277/269 142/276/268 141/278/270
f 181/277/269 141/278/270 180/279/271
f 180/279/271 141/278/270 140/280/272
f 180/279/271 140/280/272 179/281/273
f 179/281/273 140/280/272 139/282/274
f 179/281/273 139/282/274 178/283/275
f 178/283/275 139/282/274 138/284/276
f 178/283/275 138/284/276 177/285/277
f 177/285/277 138/284/276 176/286/278
f 176/286/278 138/284/276 137/287/279
f 176/286/278 137/287/279 175/288/280
f 175/288/280 137/287/279 136/289/281
f 175/288/280 136/289/281 174/290/282
f 174/290/282 136/289/281 135/291/283
f 174/290/282 135/291/283 173/292/284
f 173/292/284 135/291/283 134/293/285
f 173/292/284 134/293/285 172/294/286
f 172/294/286 134/293/285 133/295/287
f 172/294/286 133/295/287 171/296/288
f 171/296/288 133/295/287 79/297/131
f 186/298/289 224/299/290 185/300/291
f 185/300/291 224/299/290 225/301/292
f 185/300/291 225/301/292 210/302/293
f 210/302/293 225/301/292 248/303/294
f 210/302/293 248/303/294 209/304/295
f 209/304/295 248/303/294 247/305/296
f 209/304/295 247/305/296 208/306/297
f 208/306/297 247/305/296 246/307/298
f 208/306/297 246/307/298 207/308/299
f 207/308/299 246/307/298 245/309/300
f 207/308/299 245/309/300 206/310/301
f 206/310/301 245/309/300 244/311/302
f 206/310/301 244/311/302 205/312/303
f 205/312/303 244/311/302 243/313/304
f 205/312/303 243/313/304 204/314/305
f 204/314/305 243/313/304 242/315/306
f 204/314/305 242/315/306 203/316/307
f 203/316/307 242/315/306 241/317/308
f 203/316/307 241/317/308 202/318/309
f 202/318/309 241/317/308 240/319/310
f 202/318/309 240/319/310 201/320/311
f 201/320/311 240/319/310 239/321/312
f 201/320/311 239/321/312 200/322/313
f 200/322/313 239/321/312 238/323/314
f 200/322/313 238/323/314 199/324/315
f 199/324/315 238/323/314 237/325/316
f 199/324/315 237/325/316 198/326/317
f 198/326/317 237/325/316 223/327/318
f 198/328/317 223/329/318 197/330/319
f 197/330/319 223/329/318 236/331/320
f 197/330/319 236/331/320 196/332/321
f 196/332/321 236/331/320 235/333/322
f 196/332/321 235/333/322 195/334/323
f 195/334/323 235/333/322 234/335/324
f 195/334/323 234/335/324 194/336/325
f 194/336/325 234/335/324 233/337/326
f 194/336/325 233/337/326 193/338/327
f 193/338/327 233/337/326 232/339/328
f 193/338/327 232/339/328 192/340/329
f 192/340/329 232/339/328 231/341/330
f 192/340/329 231/341/330 191/342/331
f 191/342/331 231/341/330 230/343/332
f 191/342/331 230/343/332 190/344/333
f 190/344/333 230/343/332 229/345/334
f 190/344/333 229/345/334 189/346/335
f 189/346/335 229/345/334 228/347/336
f 189/346/335 228/347/336 188/348/337
f 188/348/337 228/347/336 227/349/338
f 188/348/337 227/349/338 187/350/339
f 187/350/339 227/349/338 226/351/340
f 187/350/339 226/351/340 186/298/289
f 186/298/289 226/351/340 224/299/290
f 211/352/341 248/303/294 171/353/342
f 171/353/342 248/303/294 225/301/292
f 171/353/342 225/301/292 172/354/343
f 172/354/343 225/301/292 224/299/290
f 172/354/343 224/299/290 173/355/344
f 173/355/344 224/299/290 226/351/340
f 173/355/344 226/351/340 174/356/345
f 174/356/345 226/351/340 227/349/338
f 174/356/345 227/349/338 175/357/346
f 175/357/346 227/349/338 228/347/336
f 175/357/346 228/347/336 176/358/347
f 176/358/347 228/347/336 229/345/334
f 176/358/347 229/345/334 177/359/348
f 177/359/348 229/345/334 230/343/332
f 177/359/348 230/343/332 178/360/349
f 178/360/349 230/343/332 231/341/330
f 178/360/349 231/341/330 179/361/350
f 179/361/350 231/341/330 232/339/328
f 179/361/350 232/339/328 180/362/351
f 180/362/351 232/339/328 233/337/326
f 180/362/351 233/337/326 181/363/352
f 181/363/352 233/337/326 234/335/324
f 181/363/352 234/335/324 182/364/353
f 182/364/353 234/335/324 235/333/322
f 182/364/353 235/333/322 183/365/354
f 183/365/354 235/333/322 236/331/320
f 183/365/354 236/331/320 184/366/355
f 184/366/355 236/331/320 223/329/318
f 184/367/355 223/327/318 222/368/356
f 222/368/356 223/327/318 237/325/316
f 222/368/356 237/325/316 221/369/357
f 221/369/357 237/325/316 238/323/314
f 221/369/357 238/323/314 220/370/358
f 220/370/358 238/323/314 239/321/312
f 220/370/358 239/321/312 219/371/359
f 219/371/359 239/321/312 240/319/310
f 219/371/359 240/319/310 218/372/360
f 218/372/360 240/319/310 241/317/308
f 218/372/360 241/317/308 217/373/361
f 217/373/361 241/317/308 242/315/306
f 217/373/361 242/315/306 216/374/362
f 216/374/362 242/315/306 243/313/304
f 216/374/362 243/313/304 215/375/363
f 215/375/363 243/313/304 244/311/302
f 215/375/363 244/311/302 214/376/364
f 214/376/364 244/311/302 245/309/300
f 214/376/364 245/309/300 213/377/365
f 213/377/365 245/309/300 246/307/298
f 213/377/365 246/307/298 212/378/366
f 212/378/366 246/307/298 247/305/296
f 212/378/366 247/305/296 211/352/341
f 211/352/341 247/305/296 248/303/294
f 210/379/367 199/380/368 185/381/369
f 185/381/369 199/380/368 198/382/370
f 185/381/369 198/382/370 186/383/371
f 186/383/371 198/382/370 197/384/372
f 186/383/371 197/384/372 187/385/373
f 187/385/373 197/384/372 196/386/374
f 187/385/373 196/386/374 188/387/375
f 188/387/375 196/386/374 195/388/376
f 188/387/375 195/388/376 189/389/377
f 189/389/377 195/388/376 194/390/378
f 189/389/377 194/390/378 190/391/379
f 190/391/379 194/390/378 193/392/380
f 190/391/379 193/392/380 191/393/381
f 191/393/381 193/392/380 192/394/382
f 199/380/368 210/379/367 200/395/383
f 200/395/383 210/379/367 209/396/384
f 200/395/383 209/396/384 201/397/385
f 201/397/385 209/396/384 208/398/386
f 201/397/385 208/398/386 202/399/387
f 202/399/387 208/398/386 207/400/388
f 202/399/387 207/400/388 203/401/389
f 203/401/389 207/400/388 206/402/390
f 203/401/389 206/402/390 204/403/391
f 204/403/391 206/402/390 205/404/392
f 184/405/264 222/406/393 262/407/394
f 262/407/394 222/406/393 221/408/395
f 262/407/394 221/408/395 220/409/396
f 220/409/396 219/410/397 262/407/394
f 262/407/394 219/410/397 218/411/398
f 262/407/394 218/411/398 257/412/399
f 257/412/399 218/411/398 256/413/400
f 256/413/400 218/411/398 217/414/401
f 256/413/400 217/414/401 216/415/402
f 256/413/400 216/415/402 255/416/403
f 255/416/403 216/415/402 215/417/404
f 255/416/403 215/417/404 254/418/405
f 254/418/405 215/417/404 249/419/406
f 254/418/405 249/419/406 253/420/407
f 253/420/407 249/419/406 252/421/408
f 252/421/408 249/419/406 251/422/409
f 251/422/409 249/419/406 250/423/410
f 215/417/404 214/424/411 249/419/406
f 249/419/406 214/424/411 213/425/412
f 249/419/406 213/425/412 212/426/413
f 212/426/413 211/427/414 249/419/406
f 249/419/406 211/427/414 171/428/288
f 257/412/399 258/429/415 262/407/394
f 262/407/394 258/429/415 259/430/416
f 262/407/394 259/430/416 260/431/417
f 260/431/417 261/432/418 262/407/394
f 264/433/419 92/434/212 263/435/420
f 263/435/420 92/434/212 184/436/355
f 263/435/420 184/436/355 262/437/421
f 93/438/422 27/439/54 264/433/419
f 264/433/419 27/439/54 92/434/212
f 256/440/423 265/441/424 257/442/425
f 257/442/425 265/441/424 266/443/426
f 257/442/425 266/443/426 258/444/427
f 258/444/427 266/443/426 267/445/428
f 258/444/427 267/445/428 259/446/429
f 259/446/429 267/445/428 268/447/430
f 259/446/429 268/447/430 260/448/431
f 260/448/431 268/447/430 269/449/432
f 260/448/431 269/449/432 261/450/433
f 261/450/433 269/449/432 270/451/434
f 261/450/433 270/451/434 262/452/421
f 262/452/421 270/451/434 263/453/420
f 271/454/435 265/455/424 255/456/436
f 255/456/436 265/455/424 256/457/423
f 249/458/437 272/459/438 250/460/439
f 250/460/439 272/459/438 273/461/440
f 250/460/439 273/461/440 251/462/441
f 251/462/441 273/461/440 274/463/442
f 251/462/441 274/463/442 252/464/443
f 252/464/443 274/463/442 275/465/444
f 252/464/443 275/465/444 253/466/445
f 253/466/445 275/465/444 276/467/446
f 253/466/445 276/467/446 254/468/447
f 254/468/447 276/467/446 277/469/448
f 254/468/447 277/469/448 255/470/436
f 255/470/436 277/469/448 271/471/435
f 272/472/438 79/473/225 278/474/449
f 278/474/449 79/473/225 40/475/67
f 278/474/449 40/475/67 106/476/450
f 249/477/437 171/478/342 272/472/438
f 272/472/438 171/478/342 79/473/225
f 100/479/451 279/480/452 101/481/453
f 101/481/453 279/480/452 280/482/454
f 101/481/453 280/482/454 102/483/455
f 102/483/455 280/482/454 281/484/456
f 102/483/455 281/484/456 103/485/457
f 103/485/457 281/484/456 282/486/458
f 103/485/457 282/486/458 104/487/459
f 104/487/459 282/486/458 283/488/460
f 104/487/459 283/488/460 105/489/461
f 105/489/461 283/488/460 284/490/462
f 105/489/461 284/490/462 106/491/450
f 106/491/450 284/490/462 278/492/449
f 285/493/463 279/494/452 99/495/464
f 99/495/464 279/494/452 100/496/451
f 93/497/422 264/498/419 94/499/465
f 94/499/465 264/498/419 286/500/466
f 94/499/465 286/500/466 95/501/467
f 95/501/467 286/500/466 287/502/468
f 95/501/467 287/502/468 96/503/469
f 96/503/469 287/502/468 288/504/470
f 96/503/469 288/504/470 97/505/471
f 97/505/471 288/504/470 289/506/472
f 97/505/471 289/506/472 98/507/473
f 98/507/473 289/506/472 290/508/474
f 98/507/473 290/508/474 99/509/464
f 99/509/464 290/508/474 285/510/463
f 290/511/475 266/512/476 285/513/477
f 285/513/477 266/512/476 277/514/478
f 285/513/477 277/514/478 279/515/479
f 279/515/479 277/514/478 280/516/480
f 280/516/480 277/514/478 276/517/481
f 280/516/480 276/517/481 281/518/482
f 281/518/482 276/517/481 275/519/483
f 281/518/482 275/519/483 282/520/484
f 282/520/484 275/519/483 274/521/485
f 282/520/484 274/521/485 272/522/486
f 272/522/486 274/521/485 273/523/487
f 266/512/476 290/511/475 267/524/488
f 267/524/488 290/511/475 289/525/489
f 267/524/488 289/525/489 268/526/490
f 268/526/490 289/525/489 288/527/491
f 268/526/490 288/527/491 269/528/492
f 269/528/492 288/527/491 263/529/493
f 269/528/492 263/529/493 270/530/494
f 288/527/491 287/531/495 263/529/493
f 263/529/493 287/531/495 264/532/496
f 264/532/496 287/531/495 286/533/497
f 265/534/498 271/535/499 266/512/476
f 266/512/476 271/535/499 277/514/478
f 282/520/484 272/522/486 283/536/500
f 283/536/500 272/522/486 278/537/501
f 283/536/500 278/537/501 284/538/502
# 290 vertices
# 538 texture params
# 502 normals
# 576 facets

# 1 groups
