# WaveFront *.obj file (generated by Autodesk ATF)

mtllib Interior Room.mtl

g Body5

v -44.000000 9.000000 5.106868
v -48.000000 9.000000 5.106868
v -48.000000 10.000000 5.106868
v -44.000000 10.000000 5.106868
v -48.000000 -17.000000 5.106868
v -44.000000 -17.000000 5.106868
v -44.000000 -18.000000 5.106868
v -48.000000 -18.000000 5.106868
v -48.000000 9.000000 0.000000
v -48.000000 10.000000 0.000000
v -48.000000 -17.000000 0.000000
v -48.000000 -18.000000 0.000000
v -44.000000 9.000000 0.000000
v -44.000000 10.000000 0.000000
v -44.000000 -17.000000 0.000000
v -44.000000 -18.000000 0.000000
v -50.000000 -17.000000 0.000000
v -50.000000 -17.000000 7.500000
v -37.000000 -17.000000 7.500000
v -37.000000 -17.000000 0.000000
v -37.000000 -18.000000 0.000000
v -37.000000 -18.000000 8.500000
v -51.000000 -18.000000 8.500000
v -51.000000 -18.000000 0.000000
v -51.000000 10.000000 0.000000
v -50.000000 9.000000 0.000000
v -51.000000 10.000000 8.500000
v -37.000000 10.000000 8.500000
v -37.000000 10.000000 0.000000
v -50.000000 9.000000 7.500000
v -37.000000 9.000000 0.000000
v -37.000000 9.000000 7.500000
v -36.715370 8.979643 0.000000
v -36.436535 8.918986 0.000000
v -36.169170 8.819264 0.000000
v -35.918718 8.682507 0.000000
v -35.690279 8.511499 0.000000
v -35.488501 8.309721 0.000000
v -35.317493 8.081282 0.000000
v -35.180736 7.830830 0.000000
v -35.081014 7.563465 0.000000
v -35.020357 7.284630 0.000000
v -35.000000 7.000000 0.000000
v -35.000000 7.000000 7.500000
v -35.020357 7.284630 7.500000
v -35.081014 7.563465 7.500000
v -35.180736 7.830830 7.500000
v -35.317493 8.081282 7.500000
v -35.488501 8.309721 7.500000
v -35.690279 8.511499 7.500000
v -35.918718 8.682507 7.500000
v -36.169170 8.819264 7.500000
v -36.436535 8.918986 7.500000
v -36.715370 8.979643 7.500000
v -36.715370 8.979643 3.750000
v -36.436535 8.918986 3.750000
v -36.169170 8.819264 3.750000
v -35.918718 8.682507 3.750000
v -35.690279 8.511499 3.750000
v -35.488501 8.309721 3.750000
v -35.317493 8.081282 3.750000
v -35.180736 7.830830 3.750000
v -35.081014 7.563465 3.750000
v -35.020357 7.284630 3.750000
v -35.000000 -15.000000 0.000000
v -35.000000 -15.000000 7.500000
v -35.020357 -15.284630 0.000000
v -35.081014 -15.563465 0.000000
v -35.180736 -15.830830 0.000000
v -35.317493 -16.081282 0.000000
v -35.488501 -16.309721 0.000000
v -35.690279 -16.511499 0.000000
v -35.918718 -16.682507 0.000000
v -36.169170 -16.819264 0.000000
v -36.436535 -16.918986 0.000000
v -36.715370 -16.979643 0.000000
v -36.715370 -16.979643 7.500000
v -36.436535 -16.918986 7.500000
v -36.169170 -16.819264 7.500000
v -35.918718 -16.682507 7.500000
v -35.690279 -16.511499 7.500000
v -35.488501 -16.309721 7.500000
v -35.317493 -16.081282 7.500000
v -35.180736 -15.830830 7.500000
v -35.081014 -15.563465 7.500000
v -35.020357 -15.284630 7.500000
v -35.020357 -15.284630 3.750000
v -35.081014 -15.563465 3.750000
v -35.180736 -15.830830 3.750000
v -35.317493 -16.081282 3.750000
v -35.488501 -16.309721 3.750000
v -35.690279 -16.511499 3.750000
v -35.918718 -16.682507 3.750000
v -36.169170 -16.819264 3.750000
v -36.436535 -16.918986 3.750000
v -36.715370 -16.979643 3.750000
v -34.000000 7.000000 0.000000
v -34.018863 7.335893 0.000000
v -34.075216 7.667563 0.000000
v -34.168350 7.990837 0.000000
v -34.297093 8.301651 0.000000
v -34.459827 8.596096 0.000000
v -34.654506 8.870469 0.000000
v -34.878680 9.121320 0.000000
v -35.129531 9.345494 0.000000
v -35.403904 9.540173 0.000000
v -35.698349 9.702907 0.000000
v -36.009163 9.831650 0.000000
v -36.332437 9.924784 0.000000
v -36.664107 9.981137 0.000000
v -36.664107 9.981137 8.500000
v -36.332437 9.924784 8.500000
v -36.009163 9.831650 8.500000
v -35.698349 9.702907 8.500000
v -35.403904 9.540173 8.500000
v -35.129531 9.345494 8.500000
v -34.878680 9.121320 8.500000
v -34.654506 8.870469 8.500000
v -34.459827 8.596096 8.500000
v -34.297093 8.301651 8.500000
v -34.168350 7.990837 8.500000
v -34.075216 7.667563 8.500000
v -34.018863 7.335893 8.500000
v -34.000000 7.000000 8.500000
v -34.018863 7.335893 4.250000
v -34.075216 7.667563 4.250000
v -34.168350 7.990837 4.250000
v -34.297093 8.301651 4.250000
v -34.459827 8.596096 4.250000
v -34.654506 8.870469 4.250000
v -34.878680 9.121320 4.250000
v -35.129531 9.345494 4.250000
v -35.403904 9.540173 4.250000
v -35.698349 9.702907 4.250000
v -36.009163 9.831650 4.250000
v -36.332437 9.924784 4.250000
v -36.664107 9.981137 4.250000
v -34.000000 -15.000000 0.000000
v -34.000000 -15.000000 8.500000
v -36.664107 -17.981137 0.000000
v -36.332437 -17.924784 0.000000
v -36.009163 -17.831650 0.000000
v -35.698349 -17.702907 0.000000
v -35.403904 -17.540173 0.000000
v -35.129531 -17.345494 0.000000
v -34.878680 -17.121320 0.000000
v -34.654506 -16.870469 0.000000
v -34.459827 -16.596096 0.000000
v -34.297093 -16.301651 0.000000
v -34.168350 -15.990837 0.000000
v -34.075216 -15.667563 0.000000
v -34.018863 -15.335893 0.000000
v -34.018863 -15.335893 8.500000
v -34.075216 -15.667563 8.500000
v -34.168350 -15.990837 8.500000
v -34.297093 -16.301651 8.500000
v -34.459827 -16.596096 8.500000
v -34.654506 -16.870469 8.500000
v -34.878680 -17.121320 8.500000
v -35.129531 -17.345494 8.500000
v -35.403904 -17.540173 8.500000
v -35.698349 -17.702907 8.500000
v -36.009163 -17.831650 8.500000
v -36.332437 -17.924784 8.500000
v -36.664107 -17.981137 8.500000
v -36.664107 -17.981137 4.250000
v -36.332437 -17.924784 4.250000
v -36.009163 -17.831650 4.250000
v -35.698349 -17.702907 4.250000
v -35.403904 -17.540173 4.250000
v -35.129531 -17.345494 4.250000
v -34.878680 -17.121320 4.250000
v -34.654506 -16.870469 4.250000
v -34.459827 -16.596096 4.250000
v -34.297093 -16.301651 4.250000
v -34.168350 -15.990837 4.250000
v -34.075216 -15.667563 4.250000
v -34.018863 -15.335893 4.250000
vt -400.000001 2700.000005 0.000000
vt -0.000000 2700.000005 0.000000
vt -400.000001 2800.000006 0.000000
vt -0.000000 2800.000006 0.000000
vt -0.000000 100.000000 0.000000
vt -400.000001 100.000000 0.000000
vt -0.000000 0.000000 0.000000
vt -400.000001 0.000000 0.000000
vt -510.686844 2700.000005 0.000000
vt -0.000000 2700.000005 0.000000
vt -510.686844 2800.000006 0.000000
vt -0.000000 2800.000006 0.000000
vt -0.000000 100.000000 0.000000
vt -510.686844 100.000000 0.000000
vt -0.000000 0.000000 0.000000
vt -510.686844 0.000000 0.000000
vt -510.686844 2700.000005 0.000000
vt 0.000000 2700.000005 0.000000
vt -510.686844 2800.000006 0.000000
vt 0.000000 2800.000006 0.000000
vt 0.000000 100.000000 0.000000
vt -510.686844 100.000000 0.000000
vt 0.000000 0.000000 0.000000
vt -510.686844 0.000000 0.000000
vt -200.000000 0.000000 0.000000
vt -200.000000 510.686844 0.000000
vt -900.000002 0.000000 0.000000
vt -900.000002 750.000000 0.000000
vt 400.000001 750.000000 0.000000
vt 200.000000 510.686844 0.000000
vt 400.000001 0.000000 0.000000
vt 200.000000 0.000000 0.000000
vt -200.000000 0.000000 0.000000
vt -200.000000 510.686844 0.000000
vt -500.000001 0.000000 0.000000
vt -500.000001 850.000000 0.000000
vt 200.000000 510.686844 0.000000
vt 900.000002 850.000000 0.000000
vt 900.000002 0.000000 0.000000
vt 200.000000 0.000000 0.000000
vt 800.000002 -1300.000000 0.000000
vt 800.000002 -1400.000000 0.000000
vt 1000.000002 -1300.000000 0.000000
vt 1100.000002 -1400.000000 0.000000
vt 1000.000002 1300.000000 0.000000
vt 1100.000002 1400.000000 0.000000
vt 800.000002 1400.000000 0.000000
vt 800.000002 1300.000000 0.000000
vt 700.000001 0.000000 0.000000
vt 700.000001 510.686844 0.000000
vt 0.000000 0.000000 0.000000
vt 0.000000 850.000000 0.000000
vt 1400.000003 850.000000 0.000000
vt 1100.000002 510.686844 0.000000
vt 1400.000003 0.000000 0.000000
vt 1100.000002 0.000000 0.000000
vt -0.000000 -100.000000 0.000000
vt -750.000000 -100.000000 0.000000
vt -0.000000 -2699.999999 0.000000
vt -750.000000 -2699.999999 0.000000
vt -700.000001 0.000000 0.000000
vt -0.000000 0.000000 0.000000
vt -700.000001 510.686844 0.000000
vt -0.000000 750.000000 0.000000
vt -1300.000003 750.000000 0.000000
vt -1100.000002 510.686844 0.000000
vt -1300.000003 0.000000 0.000000
vt -1100.000002 0.000000 0.000000
vt 750.000000 314.159265 0.000000
vt 0.000000 314.159265 0.000000
vt 375.000000 285.599332 0.000000
vt 0.000000 285.599332 0.000000
vt 375.000000 257.039399 0.000000
vt 0.000000 257.039399 0.000000
vt 375.000000 228.479466 0.000000
vt 0.000000 228.479466 0.000000
vt 375.000000 199.919532 0.000000
vt 0.000000 199.919532 0.000000
vt 375.000000 171.359599 0.000000
vt 0.000000 171.359599 0.000000
vt 375.000000 142.799666 0.000000
vt 0.000000 142.799666 0.000000
vt 375.000000 114.239733 0.000000
vt 0.000000 114.239733 0.000000
vt 375.000000 85.679800 0.000000
vt 0.000000 85.679800 0.000000
vt 375.000000 57.119866 0.000000
vt 0.000000 57.119866 0.000000
vt 375.000000 28.559933 0.000000
vt 0.000000 28.559933 0.000000
vt 0.000000 0.000000 0.000000
vt 750.000000 0.000000 0.000000
vt 750.000000 28.559933 0.000000
vt 750.000000 57.119866 0.000000
vt 750.000000 85.679800 0.000000
vt 750.000000 114.239733 0.000000
vt 750.000000 142.799666 0.000000
vt 750.000000 171.359599 0.000000
vt 750.000000 199.919532 0.000000
vt 750.000000 228.479466 0.000000
vt 750.000000 257.039399 0.000000
vt 750.000000 285.599332 0.000000
vt -2199.999999 0.000000 0.000000
vt -0.000000 0.000000 0.000000
vt -2199.999999 750.000000 0.000000
vt -0.000000 750.000000 0.000000
vt 750.000000 314.159265 0.000000
vt 0.000000 314.159265 0.000000
vt 375.000000 285.599332 0.000000
vt 0.000000 285.599332 0.000000
vt 375.000000 257.039399 0.000000
vt 0.000000 257.039399 0.000000
vt 375.000000 228.479466 0.000000
vt 0.000000 228.479466 0.000000
vt 375.000000 199.919532 0.000000
vt 0.000000 199.919532 0.000000
vt 375.000000 171.359599 0.000000
vt 0.000000 171.359599 0.000000
vt 375.000000 142.799666 0.000000
vt 0.000000 142.799666 0.000000
vt 375.000000 114.239733 0.000000
vt 0.000000 114.239733 0.000000
vt 375.000000 85.679800 0.000000
vt 0.000000 85.679800 0.000000
vt 375.000000 57.119866 0.000000
vt 0.000000 57.119866 0.000000
vt 375.000000 28.559933 0.000000
vt 0.000000 28.559933 0.000000
vt 0.000000 0.000000 0.000000
vt 750.000000 0.000000 0.000000
vt 750.000000 28.559933 0.000000
vt 750.000000 57.119866 0.000000
vt 750.000000 85.679800 0.000000
vt 750.000000 114.239733 0.000000
vt 750.000000 142.799666 0.000000
vt 750.000000 171.359599 0.000000
vt 750.000000 199.919532 0.000000
vt 750.000000 228.479466 0.000000
vt 750.000000 257.039399 0.000000
vt 750.000000 285.599332 0.000000
vt -497.964289 -1128.462967 0.000000
vt -491.898596 -1156.346511 0.000000
vt -500.000001 -1100.000000 0.000000
vt -481.926400 -1183.083002 0.000000
vt -468.250708 -1208.128163 0.000000
vt -451.149916 -1230.972146 0.000000
vt -430.972148 -1251.149915 0.000000
vt -408.128164 -1268.250706 0.000000
vt -383.083003 -1281.926399 0.000000
vt -356.346512 -1291.898594 0.000000
vt -328.462968 -1297.964288 0.000000
vt -300.000001 -1300.000000 0.000000
vt -300.000001 1300.000000 0.000000
vt -500.000001 1100.000000 0.000000
vt -328.462968 1297.964288 0.000000
vt -356.346512 1291.898594 0.000000
vt 1000.000002 -1300.000000 0.000000
vt 1000.000002 1300.000000 0.000000
vt -383.083003 1281.926399 0.000000
vt -408.128164 1268.250706 0.000000
vt -430.972148 1251.149915 0.000000
vt -451.149916 1230.972146 0.000000
vt -468.250708 1208.128163 0.000000
vt -481.926400 1183.083002 0.000000
vt -491.898596 1156.346511 0.000000
vt -497.964289 1128.462967 0.000000
vt 0.000000 -2799.999999 0.000000
vt 850.000000 -2799.999999 0.000000
vt 0.000000 0.000000 0.000000
vt 850.000000 0.000000 0.000000
vt -850.000000 0.000000 0.000000
vt -0.000000 0.000000 0.000000
vt -425.000000 33.659921 0.000000
vt -0.000000 33.659921 0.000000
vt -425.000000 67.319843 0.000000
vt -0.000000 67.319843 0.000000
vt -425.000000 100.979764 0.000000
vt -0.000000 100.979764 0.000000
vt -425.000000 134.639685 0.000000
vt -0.000000 134.639685 0.000000
vt -425.000000 168.299606 0.000000
vt -0.000000 168.299606 0.000000
vt -425.000000 201.959528 0.000000
vt -0.000000 201.959528 0.000000
vt -425.000000 235.619449 0.000000
vt -0.000000 235.619449 0.000000
vt -425.000000 269.279370 0.000000
vt -0.000000 269.279370 0.000000
vt -425.000000 302.939291 0.000000
vt -0.000000 302.939291 0.000000
vt -425.000000 336.599213 0.000000
vt -0.000000 336.599213 0.000000
vt -425.000000 370.259134 0.000000
vt -0.000000 370.259134 0.000000
vt -425.000000 403.919055 0.000000
vt -0.000000 403.919055 0.000000
vt -425.000000 437.578977 0.000000
vt -0.000000 437.578977 0.000000
vt -0.000000 471.238898 0.000000
vt -850.000000 471.238898 0.000000
vt -850.000000 437.578977 0.000000
vt -850.000000 403.919055 0.000000
vt -850.000000 370.259134 0.000000
vt -850.000000 336.599213 0.000000
vt -850.000000 302.939291 0.000000
vt -850.000000 269.279370 0.000000
vt -850.000000 235.619449 0.000000
vt -850.000000 201.959528 0.000000
vt -850.000000 168.299606 0.000000
vt -850.000000 134.639685 0.000000
vt -850.000000 100.979764 0.000000
vt -850.000000 67.319843 0.000000
vt -850.000000 33.659921 0.000000
vt 0.000000 0.000000 0.000000
vt 2199.999999 0.000000 0.000000
vt 0.000000 850.000000 0.000000
vt 2199.999999 850.000000 0.000000
vt -850.000000 0.000000 0.000000
vt -0.000000 0.000000 0.000000
vt -425.000000 33.659921 0.000000
vt -0.000000 33.659921 0.000000
vt -425.000000 67.319843 0.000000
vt -0.000000 67.319843 0.000000
vt -425.000000 100.979764 0.000000
vt -0.000000 100.979764 0.000000
vt -425.000000 134.639685 0.000000
vt -0.000000 134.639685 0.000000
vt -425.000000 168.299606 0.000000
vt -0.000000 168.299606 0.000000
vt -425.000000 201.959528 0.000000
vt -0.000000 201.959528 0.000000
vt -425.000000 235.619449 0.000000
vt -0.000000 235.619449 0.000000
vt -425.000000 269.279370 0.000000
vt -0.000000 269.279370 0.000000
vt -425.000000 302.939291 0.000000
vt -0.000000 302.939291 0.000000
vt -425.000000 336.599213 0.000000
vt -0.000000 336.599213 0.000000
vt -425.000000 370.259134 0.000000
vt -0.000000 370.259134 0.000000
vt -425.000000 403.919055 0.000000
vt -0.000000 403.919055 0.000000
vt -425.000000 437.578977 0.000000
vt -0.000000 437.578977 0.000000
vt -0.000000 471.238898 0.000000
vt -850.000000 471.238898 0.000000
vt -850.000000 437.578977 0.000000
vt -850.000000 403.919055 0.000000
vt -850.000000 370.259134 0.000000
vt -850.000000 336.599213 0.000000
vt -850.000000 302.939291 0.000000
vt -850.000000 269.279370 0.000000
vt -850.000000 235.619449 0.000000
vt -850.000000 201.959528 0.000000
vt -850.000000 168.299606 0.000000
vt -850.000000 134.639685 0.000000
vt -850.000000 100.979764 0.000000
vt -850.000000 67.319843 0.000000
vt -850.000000 33.659921 0.000000
vt 300.000001 -1400.000000 0.000000
vt 333.589344 -1398.113663 0.000000
vt -1100.000002 -1400.000000 0.000000
vt 366.756281 -1392.478373 0.000000
vt 399.083719 -1383.164999 0.000000
vt 430.165123 -1370.290660 0.000000
vt 600.000001 -1100.000000 0.000000
vt 300.000001 1400.000000 0.000000
vt -1100.000002 1400.000000 0.000000
vt 459.609624 -1354.017259 0.000000
vt 487.046942 -1334.549444 0.000000
vt 512.132035 -1312.132034 0.000000
vt 534.549446 -1287.046940 0.000000
vt 554.017261 -1259.609623 0.000000
vt 570.290662 -1230.165121 0.000000
vt 583.165000 -1199.083718 0.000000
vt 592.478375 -1166.756280 0.000000
vt 598.113664 -1133.589343 0.000000
vt 600.000001 1100.000000 0.000000
vt 333.589344 1398.113663 0.000000
vt 366.756281 1392.478373 0.000000
vt 399.083719 1383.164999 0.000000
vt 430.165123 1370.290660 0.000000
vt 459.609624 1354.017259 0.000000
vt 487.046942 1334.549444 0.000000
vt 512.132035 1312.132034 0.000000
vt 534.549446 1287.046940 0.000000
vt 554.017261 1259.609623 0.000000
vt 570.290662 1230.165121 0.000000
vt 583.165000 1199.083718 0.000000
vt 592.478375 1166.756280 0.000000
vt 598.113664 1133.589343 0.000000
vt 400.000001 -1300.000000 0.000000
vt -300.000001 -1300.000000 0.000000
vt 400.000001 -1400.000000 0.000000
vt -300.000001 -1400.000000 0.000000
vt -328.462968 -1297.964288 0.000000
vt -333.589344 -1398.113663 0.000000
vt -356.346512 -1291.898594 0.000000
vt -366.756281 -1392.478373 0.000000
vt -383.083003 -1281.926399 0.000000
vt -399.083719 -1383.164999 0.000000
vt -408.128164 -1268.250706 0.000000
vt -430.165123 -1370.290660 0.000000
vt -430.972148 -1251.149915 0.000000
vt -459.609624 -1354.017259 0.000000
vt -451.149916 -1230.972146 0.000000
vt -487.046942 -1334.549444 0.000000
vt -468.250708 -1208.128163 0.000000
vt -481.926400 -1183.083002 0.000000
vt -512.132035 -1312.132034 0.000000
vt -491.898596 -1156.346511 0.000000
vt -534.549446 -1287.046940 0.000000
vt -497.964289 -1128.462967 0.000000
vt -554.017261 -1259.609623 0.000000
vt -570.290662 -1230.165121 0.000000
vt -500.000001 -1100.000000 0.000000
vt -583.165000 -1199.083718 0.000000
vt -592.478375 -1166.756280 0.000000
vt -598.113664 -1133.589343 0.000000
vt -600.000001 -1100.000000 0.000000
vt -600.000001 1100.000000 0.000000
vt -500.000001 1100.000000 0.000000
vt -598.113664 1133.589343 0.000000
vt -592.478375 1166.756280 0.000000
vt -583.165000 1199.083718 0.000000
vt -570.290662 1230.165121 0.000000
vt -497.964289 1128.462967 0.000000
vt -554.017261 1259.609623 0.000000
vt -534.549446 1287.046940 0.000000
vt -491.898596 1156.346511 0.000000
vt -512.132035 1312.132034 0.000000
vt -481.926400 1183.083002 0.000000
vt -487.046942 1334.549444 0.000000
vt -468.250708 1208.128163 0.000000
vt -451.149916 1230.972146 0.000000
vt -459.609624 1354.017259 0.000000
vt -430.972148 1251.149915 0.000000
vt -430.165123 1370.290660 0.000000
vt -408.128164 1268.250706 0.000000
vt -399.083719 1383.164999 0.000000
vt -383.083003 1281.926399 0.000000
vt -366.756281 1392.478373 0.000000
vt -356.346512 1291.898594 0.000000
vt -333.589344 1398.113663 0.000000
vt -328.462968 1297.964288 0.000000
vt -300.000001 1400.000000 0.000000
vt -300.000001 1300.000000 0.000000
vt 400.000001 1300.000000 0.000000
vt 400.000001 1400.000000 0.000000
vn -0.000000 0.000000 -100.000000
vn -0.000000 0.000000 -100.000000
vn -0.000000 0.000000 -100.000000
vn -0.000000 0.000000 -100.000000
vn -0.000000 0.000000 -100.000000
vn -0.000000 0.000000 -100.000000
vn -0.000000 0.000000 -100.000000
vn -0.000000 0.000000 -100.000000
vn 100.000000 0.000000 0.000000
vn 100.000000 0.000000 0.000000
vn 100.000000 0.000000 0.000000
vn 100.000000 0.000000 0.000000
vn 100.000000 0.000000 0.000000
vn 100.000000 0.000000 0.000000
vn 100.000000 0.000000 0.000000
vn 100.000000 0.000000 0.000000
vn -100.000000 0.000000 0.000000
vn -100.000000 0.000000 0.000000
vn -100.000000 0.000000 0.000000
vn -100.000000 0.000000 0.000000
vn -100.000000 0.000000 0.000000
vn -100.000000 0.000000 0.000000
vn -100.000000 0.000000 0.000000
vn -100.000000 0.000000 0.000000
vn -0.000000 100.000000 -0.000000
vn -0.000000 100.000000 -0.000000
vn -0.000000 100.000000 -0.000000
vn -0.000000 100.000000 -0.000000
vn -0.000000 100.000000 -0.000000
vn -0.000000 100.000000 -0.000000
vn -0.000000 100.000000 -0.000000
vn -0.000000 100.000000 -0.000000
vn 0.000000 -100.000000 0.000000
vn 0.000000 -100.000000 0.000000
vn 0.000000 -100.000000 0.000000
vn 0.000000 -100.000000 0.000000
vn 0.000000 -100.000000 0.000000
vn 0.000000 -100.000000 0.000000
vn 0.000000 -100.000000 0.000000
vn 0.000000 -100.000000 0.000000
vn -0.000000 0.000000 -100.000000
vn -0.000000 0.000000 -100.000000
vn -0.000000 0.000000 -100.000000
vn -0.000000 0.000000 -100.000000
vn -0.000000 0.000000 -100.000000
vn -0.000000 0.000000 -100.000000
vn -0.000000 0.000000 -100.000000
vn -0.000000 0.000000 -100.000000
vn -0.000000 100.000000 0.000000
vn -0.000000 100.000000 0.000000
vn -0.000000 100.000000 0.000000
vn -0.000000 100.000000 0.000000
vn -0.000000 100.000000 0.000000
vn -0.000000 100.000000 0.000000
vn -0.000000 100.000000 0.000000
vn -0.000000 100.000000 0.000000
vn 100.000000 0.000000 0.000000
vn 100.000000 0.000000 0.000000
vn 100.000000 0.000000 0.000000
vn 100.000000 0.000000 0.000000
vn 0.000000 -100.000000 0.000000
vn 0.000000 -100.000000 0.000000
vn 0.000000 -100.000000 0.000000
vn 0.000000 -100.000000 0.000000
vn 0.000000 -100.000000 0.000000
vn 0.000000 -100.000000 0.000000
vn 0.000000 -100.000000 0.000000
vn 0.000000 -100.000000 0.000000
vn -14.231484 -98.982144 0.000000
vn -14.231484 -98.982144 0.000000
vn -28.173256 -95.949297 0.000000
vn -28.173256 -95.949297 0.000000
vn -41.541501 -90.963200 0.000000
vn -41.541501 -90.963200 0.000000
vn -54.064082 -84.125353 0.000000
vn -54.064082 -84.125353 0.000000
vn -65.486073 -75.574957 0.000000
vn -65.486073 -75.574957 0.000000
vn -75.574957 -65.486073 0.000000
vn -75.574957 -65.486073 0.000000
vn -84.125353 -54.064082 0.000000
vn -84.125353 -54.064082 0.000000
vn -90.963200 -41.541501 0.000000
vn -90.963200 -41.541501 0.000000
vn -95.949297 -28.173256 0.000000
vn -95.949297 -28.173256 0.000000
vn -98.982144 -14.231484 0.000000
vn -98.982144 -14.231484 0.000000
vn -100.000000 -0.000000 0.000000
vn -100.000000 -0.000000 0.000000
vn -98.982144 -14.231484 0.000000
vn -95.949297 -28.173256 0.000000
vn -90.963200 -41.541501 0.000000
vn -84.125353 -54.064082 0.000000
vn -75.574957 -65.486073 0.000000
vn -65.486073 -75.574957 0.000000
vn -54.064082 -84.125353 0.000000
vn -41.541501 -90.963200 0.000000
vn -28.173256 -95.949297 0.000000
vn -14.231484 -98.982144 0.000000
vn -100.000000 0.000000 0.000000
vn -100.000000 0.000000 0.000000
vn -98.982144 14.231484 0.000000
vn -98.982144 14.231484 0.000000
vn -95.949297 28.173256 0.000000
vn -95.949297 28.173256 0.000000
vn -90.963200 41.541501 0.000000
vn -90.963200 41.541501 0.000000
vn -84.125353 54.064082 0.000000
vn -84.125353 54.064082 0.000000
vn -75.574957 65.486073 0.000000
vn -75.574957 65.486073 0.000000
vn -65.486073 75.574957 0.000000
vn -65.486073 75.574957 0.000000
vn -54.064082 84.125353 0.000000
vn -54.064082 84.125353 0.000000
vn -41.541501 90.963200 0.000000
vn -41.541501 90.963200 0.000000
vn -28.173256 95.949297 0.000000
vn -28.173256 95.949297 0.000000
vn -14.231484 98.982144 0.000000
vn -14.231484 98.982144 0.000000
vn -14.231484 98.982144 0.000000
vn -28.173256 95.949297 0.000000
vn -41.541501 90.963200 0.000000
vn -54.064082 84.125353 0.000000
vn -65.486073 75.574957 0.000000
vn -75.574957 65.486073 0.000000
vn -84.125353 54.064082 0.000000
vn -90.963200 41.541501 0.000000
vn -95.949297 28.173256 0.000000
vn -98.982144 14.231484 0.000000
vn 0.000000 0.000000 -100.000000
vn 0.000000 0.000000 -100.000000
vn 0.000000 0.000000 -100.000000
vn 0.000000 0.000000 -100.000000
vn 0.000000 0.000000 -100.000000
vn 0.000000 0.000000 -100.000000
vn 0.000000 0.000000 -100.000000
vn 0.000000 0.000000 -100.000000
vn 0.000000 0.000000 -100.000000
vn 0.000000 0.000000 -100.000000
vn 0.000000 0.000000 -100.000000
vn 0.000000 0.000000 -100.000000
vn 0.000000 0.000000 -100.000000
vn 0.000000 0.000000 -100.000000
vn 0.000000 0.000000 -100.000000
vn 0.000000 0.000000 -100.000000
vn 0.000000 0.000000 -100.000000
vn 0.000000 0.000000 -100.000000
vn 0.000000 0.000000 -100.000000
vn 0.000000 0.000000 -100.000000
vn 0.000000 0.000000 -100.000000
vn 0.000000 0.000000 -100.000000
vn 0.000000 0.000000 -100.000000
vn 0.000000 0.000000 -100.000000
vn 0.000000 0.000000 -100.000000
vn 0.000000 0.000000 -100.000000
vn -100.000000 0.000000 0.000000
vn -100.000000 0.000000 0.000000
vn -100.000000 0.000000 0.000000
vn -100.000000 0.000000 0.000000
vn 100.000000 0.000000 0.000000
vn 100.000000 0.000000 0.000000
vn 99.371221 11.196448 0.000000
vn 99.371221 11.196448 0.000000
vn 97.492791 22.252093 0.000000
vn 97.492791 22.252093 0.000000
vn 94.388333 33.027906 0.000000
vn 94.388333 33.027906 0.000000
vn 90.096887 43.388374 0.000000
vn 90.096887 43.388374 0.000000
vn 84.672420 53.203208 0.000000
vn 84.672420 53.203208 0.000000
vn 78.183148 62.348980 0.000000
vn 78.183148 62.348980 0.000000
vn 70.710678 70.710678 0.000000
vn 70.710678 70.710678 0.000000
vn 62.348980 78.183148 0.000000
vn 62.348980 78.183148 0.000000
vn 53.203208 84.672420 0.000000
vn 53.203208 84.672420 0.000000
vn 43.388374 90.096887 0.000000
vn 43.388374 90.096887 0.000000
vn 33.027906 94.388333 0.000000
vn 33.027906 94.388333 0.000000
vn 22.252093 97.492791 0.000000
vn 22.252093 97.492791 0.000000
vn 11.196448 99.371221 0.000000
vn 11.196448 99.371221 0.000000
vn 11.196448 99.371221 0.000000
vn 22.252093 97.492791 0.000000
vn 33.027906 94.388333 0.000000
vn 43.388374 90.096887 0.000000
vn 53.203208 84.672420 0.000000
vn 62.348980 78.183148 0.000000
vn 70.710678 70.710678 0.000000
vn 78.183148 62.348980 0.000000
vn 84.672420 53.203208 0.000000
vn 90.096887 43.388374 0.000000
vn 94.388333 33.027906 0.000000
vn 97.492791 22.252093 0.000000
vn 99.371221 11.196448 0.000000
vn 100.000000 0.000000 0.000000
vn 100.000000 0.000000 0.000000
vn 11.196448 -99.371221 0.000000
vn 11.196448 -99.371221 0.000000
vn 22.252093 -97.492791 0.000000
vn 22.252093 -97.492791 0.000000
vn 33.027906 -94.388333 0.000000
vn 33.027906 -94.388333 0.000000
vn 43.388374 -90.096887 0.000000
vn 43.388374 -90.096887 0.000000
vn 53.203208 -84.672420 0.000000
vn 53.203208 -84.672420 0.000000
vn 62.348980 -78.183148 0.000000
vn 62.348980 -78.183148 0.000000
vn 70.710678 -70.710678 0.000000
vn 70.710678 -70.710678 0.000000
vn 78.183148 -62.348980 0.000000
vn 78.183148 -62.348980 0.000000
vn 84.672420 -53.203208 0.000000
vn 84.672420 -53.203208 0.000000
vn 90.096887 -43.388374 0.000000
vn 90.096887 -43.388374 0.000000
vn 94.388333 -33.027906 0.000000
vn 94.388333 -33.027906 0.000000
vn 97.492791 -22.252093 0.000000
vn 97.492791 -22.252093 0.000000
vn 99.371221 -11.196448 0.000000
vn 99.371221 -11.196448 0.000000
vn 99.371221 -11.196448 0.000000
vn 97.492791 -22.252093 0.000000
vn 94.388333 -33.027906 0.000000
vn 90.096887 -43.388374 0.000000
vn 84.672420 -53.203208 0.000000
vn 78.183148 -62.348980 0.000000
vn 70.710678 -70.710678 0.000000
vn 62.348980 -78.183148 0.000000
vn 53.203208 -84.672420 0.000000
vn 43.388374 -90.096887 0.000000
vn 33.027906 -94.388333 0.000000
vn 22.252093 -97.492791 0.000000
vn 11.196448 -99.371221 0.000000
vn 0.000000 0.000000 100.000000
vn 0.000000 0.000000 100.000000
vn 0.000000 0.000000 100.000000
vn 0.000000 0.000000 100.000000
vn 0.000000 0.000000 100.000000
vn 0.000000 0.000000 100.000000
vn 0.000000 0.000000 100.000000
vn 0.000000 0.000000 100.000000
vn 0.000000 0.000000 100.000000
vn 0.000000 0.000000 100.000000
vn 0.000000 0.000000 100.000000
vn 0.000000 0.000000 100.000000
vn 0.000000 0.000000 100.000000
vn 0.000000 0.000000 100.000000
vn 0.000000 0.000000 100.000000
vn 0.000000 0.000000 100.000000
vn 0.000000 0.000000 100.000000
vn 0.000000 0.000000 100.000000
vn 0.000000 0.000000 100.000000
vn 0.000000 0.000000 100.000000
vn 0.000000 0.000000 100.000000
vn 0.000000 0.000000 100.000000
vn 0.000000 0.000000 100.000000
vn 0.000000 0.000000 100.000000
vn 0.000000 0.000000 100.000000
vn 0.000000 0.000000 100.000000
vn 0.000000 0.000000 100.000000
vn 0.000000 0.000000 100.000000
vn 0.000000 0.000000 100.000000
vn 0.000000 0.000000 100.000000
vn 0.000000 0.000000 100.000000
vn 0.000000 0.000000 100.000000
vn -0.000000 0.000000 -100.000000
vn -0.000000 0.000000 -100.000000
vn -0.000000 0.000000 -100.000000
vn -0.000000 0.000000 -100.000000
vn -0.000000 0.000000 -100.000000
vn -0.000000 0.000000 -100.000000
vn -0.000000 0.000000 -100.000000
vn -0.000000 0.000000 -100.000000
vn -0.000000 0.000000 -100.000000
vn -0.000000 0.000000 -100.000000
vn -0.000000 0.000000 -100.000000
vn -0.000000 0.000000 -100.000000
vn -0.000000 0.000000 -100.000000
vn -0.000000 0.000000 -100.000000
vn -0.000000 0.000000 -100.000000
vn -0.000000 0.000000 -100.000000
vn -0.000000 0.000000 -100.000000
vn -0.000000 0.000000 -100.000000
vn -0.000000 0.000000 -100.000000
vn -0.000000 0.000000 -100.000000
vn -0.000000 0.000000 -100.000000
vn -0.000000 0.000000 -100.000000
vn -0.000000 0.000000 -100.000000
vn -0.000000 0.000000 -100.000000
vn -0.000000 0.000000 -100.000000
vn -0.000000 0.000000 -100.000000
vn -0.000000 0.000000 -100.000000
vn -0.000000 0.000000 -100.000000
vn -0.000000 0.000000 -100.000000
vn -0.000000 0.000000 -100.000000
vn -0.000000 0.000000 -100.000000
vn -0.000000 0.000000 -100.000000
vn -0.000000 0.000000 -100.000000
vn -0.000000 0.000000 -100.000000
vn -0.000000 0.000000 -100.000000
vn -0.000000 0.000000 -100.000000
vn -0.000000 0.000000 -100.000000
vn -0.000000 0.000000 -100.000000
vn -0.000000 0.000000 -100.000000
vn -0.000000 0.000000 -100.000000
vn -0.000000 0.000000 -100.000000
vn -0.000000 0.000000 -100.000000
vn -0.000000 0.000000 -100.000000
vn -0.000000 0.000000 -100.000000
vn -0.000000 0.000000 -100.000000
vn -0.000000 0.000000 -100.000000
vn -0.000000 0.000000 -100.000000
vn -0.000000 0.000000 -100.000000
vn -0.000000 0.000000 -100.000000
vn -0.000000 0.000000 -100.000000
vn -0.000000 0.000000 -100.000000
vn -0.000000 0.000000 -100.000000
vn -0.000000 0.000000 -100.000000
vn -0.000000 0.000000 -100.000000
vn -0.000000 0.000000 -100.000000
vn -0.000000 0.000000 -100.000000
vn -0.000000 0.000000 -100.000000
vn -0.000000 0.000000 -100.000000
usemtl Steel_-_Satin
f 1/1/1 2/2/2 4/3/3
f 4/3/3 2/2/2 3/4/4
f 5/5/5 6/6/6 8/7/7
f 8/7/7 6/6/6 7/8/8
f 2/9/9 9/10/10 3/11/11
f 3/11/11 9/10/10 10/12/12
f 11/13/13 5/14/14 12/15/15
f 12/15/15 5/14/14 8/16/16
f 13/17/17 1/18/18 14/19/19
f 14/19/19 1/18/18 4/20/20
f 6/21/21 15/22/22 7/23/23
f 7/23/23 15/22/22 16/24/24
f 15/25/25 6/26/26 20/27/27
f 20/27/27 6/26/26 19/28/28
f 19/28/28 6/26/26 18/29/29
f 18/29/29 6/26/26 5/30/30
f 18/29/29 5/30/30 17/31/31
f 17/31/31 5/30/30 11/32/32
f 12/33/33 8/34/34 24/35/35
f 24/35/35 8/34/34 23/36/36
f 23/36/36 8/34/34 7/37/37
f 23/36/36 7/37/37 22/38/38
f 22/38/38 7/37/37 21/39/39
f 21/39/39 7/37/37 16/40/40
f 11/41/41 12/42/42 17/43/43
f 17/43/43 12/42/42 24/44/44
f 17/43/43 24/44/44 26/45/45
f 26/45/45 24/44/44 25/46/46
f 26/45/45 25/46/46 10/47/47
f 10/47/47 9/48/48 26/45/45
f 14/49/49 4/50/50 29/51/51
f 29/51/51 4/50/50 28/52/52
f 28/52/52 4/50/50 27/53/53
f 27/53/53 4/50/50 3/54/54
f 27/53/53 3/54/54 25/55/55
f 25/55/55 3/54/54 10/56/56
f 26/57/57 30/58/58 17/59/59
f 17/59/59 30/58/58 18/60/60
f 13/61/61 31/62/62 1/63/63
f 1/63/63 31/62/62 32/64/64
f 1/63/63 32/64/64 30/65/65
f 1/63/63 30/65/65 2/66/66
f 2/66/66 30/65/65 26/67/67
f 2/66/66 26/67/67 9/68/68
f 32/69/64 31/70/62 55/71/69
f 55/71/69 31/70/62 33/72/70
f 55/71/69 33/72/70 56/73/71
f 56/73/71 33/72/70 34/74/72
f 56/73/71 34/74/72 57/75/73
f 57/75/73 34/74/72 35/76/74
f 57/75/73 35/76/74 58/77/75
f 58/77/75 35/76/74 36/78/76
f 58/77/75 36/78/76 59/79/77
f 59/79/77 36/78/76 37/80/78
f 59/79/77 37/80/78 60/81/79
f 60/81/79 37/80/78 38/82/80
f 60/81/79 38/82/80 61/83/81
f 61/83/81 38/82/80 39/84/82
f 61/83/81 39/84/82 62/85/83
f 62/85/83 39/84/82 40/86/84
f 62/85/83 40/86/84 63/87/85
f 63/87/85 40/86/84 41/88/86
f 63/87/85 41/88/86 64/89/87
f 64/89/87 41/88/86 42/90/88
f 64/89/87 42/90/88 43/91/89
f 43/91/89 44/92/90 64/89/87
f 64/89/87 44/92/90 45/93/91
f 64/89/87 45/93/91 63/87/85
f 63/87/85 45/93/91 46/94/92
f 63/87/85 46/94/92 62/85/83
f 62/85/83 46/94/92 47/95/93
f 62/85/83 47/95/93 61/83/81
f 61/83/81 47/95/93 48/96/94
f 61/83/81 48/96/94 60/81/79
f 60/81/79 48/96/94 49/97/95
f 60/81/79 49/97/95 59/79/77
f 59/79/77 49/97/95 50/98/96
f 59/79/77 50/98/96 58/77/75
f 58/77/75 50/98/96 51/99/97
f 58/77/75 51/99/97 57/75/73
f 57/75/73 51/99/97 52/100/98
f 57/75/73 52/100/98 56/73/71
f 56/73/71 52/100/98 53/101/99
f 56/73/71 53/101/99 55/71/69
f 55/71/69 53/101/99 54/102/100
f 55/71/69 54/102/100 32/69/64
f 43/103/89 65/104/101 44/105/90
f 44/105/90 65/104/101 66/106/102
f 66/107/102 65/108/101 87/109/103
f 87/109/103 65/108/101 67/110/104
f 87/109/103 67/110/104 88/111/105
f 88/111/105 67/110/104 68/112/106
f 88/111/105 68/112/106 89/113/107
f 89/113/107 68/112/106 69/114/108
f 89/113/107 69/114/108 90/115/109
f 90/115/109 69/114/108 70/116/110
f 90/115/109 70/116/110 91/117/111
f 91/117/111 70/116/110 71/118/112
f 91/117/111 71/118/112 92/119/113
f 92/119/113 71/118/112 72/120/114
f 92/119/113 72/120/114 93/121/115
f 93/121/115 72/120/114 73/122/116
f 93/121/115 73/122/116 94/123/117
f 94/123/117 73/122/116 74/124/118
f 94/123/117 74/124/118 95/125/119
f 95/125/119 74/124/118 75/126/120
f 95/125/119 75/126/120 96/127/121
f 96/127/121 75/126/120 76/128/122
f 96/127/121 76/128/122 20/129/27
f 20/129/27 19/130/28 96/127/121
f 96/127/121 19/130/28 77/131/123
f 96/127/121 77/131/123 95/125/119
f 95/125/119 77/131/123 78/132/124
f 95/125/119 78/132/124 94/123/117
f 94/123/117 78/132/124 79/133/125
f 94/123/117 79/133/125 93/121/115
f 93/121/115 79/133/125 80/134/126
f 93/121/115 80/134/126 92/119/113
f 92/119/113 80/134/126 81/135/127
f 92/119/113 81/135/127 91/117/111
f 91/117/111 81/135/127 82/136/128
f 91/117/111 82/136/128 90/115/109
f 90/115/109 82/136/128 83/137/129
f 90/115/109 83/137/129 89/113/107
f 89/113/107 83/137/129 84/138/130
f 89/113/107 84/138/130 88/111/105
f 88/111/105 84/138/130 85/139/131
f 88/111/105 85/139/131 87/109/103
f 87/109/103 85/139/131 86/140/132
f 87/109/103 86/140/132 66/107/102
f 86/141/133 85/142/134 66/143/135
f 66/143/135 85/142/134 84/144/136
f 66/143/135 84/144/136 83/145/137
f 83/145/137 82/146/138 66/143/135
f 66/143/135 82/146/138 81/147/139
f 66/143/135 81/147/139 80/148/140
f 80/148/140 79/149/141 66/143/135
f 66/143/135 79/149/141 78/150/142
f 66/143/135 78/150/142 77/151/143
f 77/151/143 19/152/144 66/143/135
f 66/143/135 19/152/144 32/153/145
f 66/143/135 32/153/145 44/154/146
f 44/154/146 32/153/145 54/155/147
f 44/154/146 54/155/147 53/156/148
f 19/152/144 18/157/149 32/153/145
f 32/153/145 18/157/149 30/158/150
f 53/156/148 52/159/151 44/154/146
f 44/154/146 52/159/151 51/160/152
f 44/154/146 51/160/152 50/161/153
f 50/161/153 49/162/154 44/154/146
f 44/154/146 49/162/154 48/163/155
f 44/154/146 48/163/155 47/164/156
f 47/164/156 46/165/157 44/154/146
f 44/154/146 46/165/157 45/166/158
f 24/167/159 23/168/160 25/169/161
f 25/169/161 23/168/160 27/170/162
f 124/171/163 97/172/164 125/173/165
f 125/173/165 97/172/164 98/174/166
f 125/173/165 98/174/166 126/175/167
f 126/175/167 98/174/166 99/176/168
f 126/175/167 99/176/168 127/177/169
f 127/177/169 99/176/168 100/178/170
f 127/177/169 100/178/170 128/179/171
f 128/179/171 100/178/170 101/180/172
f 128/179/171 101/180/172 129/181/173
f 129/181/173 101/180/172 102/182/174
f 129/181/173 102/182/174 130/183/175
f 130/183/175 102/182/174 103/184/176
f 130/183/175 103/184/176 131/185/177
f 131/185/177 103/184/176 104/186/178
f 131/185/177 104/186/178 132/187/179
f 132/187/179 104/186/178 105/188/180
f 132/187/179 105/188/180 133/189/181
f 133/189/181 105/188/180 106/190/182
f 133/189/181 106/190/182 134/191/183
f 134/191/183 106/190/182 107/192/184
f 134/191/183 107/192/184 135/193/185
f 135/193/185 107/192/184 108/194/186
f 135/193/185 108/194/186 136/195/187
f 136/195/187 108/194/186 109/196/188
f 136/195/187 109/196/188 137/197/189
f 137/197/189 109/196/188 110/198/190
f 137/197/189 110/198/190 29/199/51
f 29/199/51 28/200/52 137/197/189
f 137/197/189 28/200/52 111/201/191
f 137/197/189 111/201/191 136/195/187
f 136/195/187 111/201/191 112/202/192
f 136/195/187 112/202/192 135/193/185
f 135/193/185 112/202/192 113/203/193
f 135/193/185 113/203/193 134/191/183
f 134/191/183 113/203/193 114/204/194
f 134/191/183 114/204/194 133/189/181
f 133/189/181 114/204/194 115/205/195
f 133/189/181 115/205/195 132/187/179
f 132/187/179 115/205/195 116/206/196
f 132/187/179 116/206/196 131/185/177
f 131/185/177 116/206/196 117/207/197
f 131/185/177 117/207/197 130/183/175
f 130/183/175 117/207/197 118/208/198
f 130/183/175 118/208/198 129/181/173
f 129/181/173 118/208/198 119/209/199
f 129/181/173 119/209/199 128/179/171
f 128/179/171 119/209/199 120/210/200
f 128/179/171 120/210/200 127/177/169
f 127/177/169 120/210/200 121/211/201
f 127/177/169 121/211/201 126/175/167
f 126/175/167 121/211/201 122/212/202
f 126/175/167 122/212/202 125/173/165
f 125/173/165 122/212/202 123/213/203
f 125/173/165 123/213/203 124/171/163
f 138/214/204 97/215/164 139/216/205
f 139/216/205 97/215/164 124/217/163
f 22/218/38 21/219/39 166/220/206
f 166/220/206 21/219/39 140/221/207
f 166/220/206 140/221/207 167/222/208
f 167/222/208 140/221/207 141/223/209
f 167/222/208 141/223/209 168/224/210
f 168/224/210 141/223/209 142/225/211
f 168/224/210 142/225/211 169/226/212
f 169/226/212 142/225/211 143/227/213
f 169/226/212 143/227/213 170/228/214
f 170/228/214 143/227/213 144/229/215
f 170/228/214 144/229/215 171/230/216
f 171/230/216 144/229/215 145/231/217
f 171/230/216 145/231/217 172/232/218
f 172/232/218 145/231/217 146/233/219
f 172/232/218 146/233/219 173/234/220
f 173/234/220 146/233/219 147/235/221
f 173/234/220 147/235/221 174/236/222
f 174/236/222 147/235/221 148/237/223
f 174/236/222 148/237/223 175/238/224
f 175/238/224 148/237/223 149/239/225
f 175/238/224 149/239/225 176/240/226
f 176/240/226 149/239/225 150/241/227
f 176/240/226 150/241/227 177/242/228
f 177/242/228 150/241/227 151/243/229
f 177/242/228 151/243/229 178/244/230
f 178/244/230 151/243/229 152/245/231
f 178/244/230 152/245/231 138/246/204
f 138/246/204 139/247/205 178/244/230
f 178/244/230 139/247/205 153/248/232
f 178/244/230 153/248/232 177/242/228
f 177/242/228 153/248/232 154/249/233
f 177/242/228 154/249/233 176/240/226
f 176/240/226 154/249/233 155/250/234
f 176/240/226 155/250/234 175/238/224
f 175/238/224 155/250/234 156/251/235
f 175/238/224 156/251/235 174/236/222
f 174/236/222 156/251/235 157/252/236
f 174/236/222 157/252/236 173/234/220
f 173/234/220 157/252/236 158/253/237
f 173/234/220 158/253/237 172/232/218
f 172/232/218 158/253/237 159/254/238
f 172/232/218 159/254/238 171/230/216
f 171/230/216 159/254/238 160/255/239
f 171/230/216 160/255/239 170/228/214
f 170/228/214 160/255/239 161/256/240
f 170/228/214 161/256/240 169/226/212
f 169/226/212 161/256/240 162/257/241
f 169/226/212 162/257/241 168/224/210
f 168/224/210 162/257/241 163/258/242
f 168/224/210 163/258/242 167/222/208
f 167/222/208 163/258/242 164/259/243
f 167/222/208 164/259/243 166/220/206
f 166/220/206 164/259/243 165/260/244
f 166/220/206 165/260/244 22/218/38
f 22/261/245 165/262/246 23/263/247
f 23/263/247 165/262/246 164/264/248
f 23/263/247 164/264/248 163/265/249
f 162/266/250 139/267/251 163/265/249
f 163/265/249 139/267/251 28/268/252
f 163/265/249 28/268/252 23/263/247
f 23/263/247 28/268/252 27/269/253
f 162/266/250 161/270/254 139/267/251
f 139/267/251 161/270/254 160/271/255
f 139/267/251 160/271/255 159/272/256
f 159/272/256 158/273/257 139/267/251
f 139/267/251 158/273/257 157/274/258
f 139/267/251 157/274/258 156/275/259
f 156/275/259 155/276/260 139/267/251
f 139/267/251 155/276/260 154/277/261
f 139/267/251 154/277/261 153/278/262
f 139/267/251 124/279/263 28/268/252
f 28/268/252 124/279/263 111/280/264
f 111/280/264 124/279/263 112/281/265
f 112/281/265 124/279/263 113/282/266
f 113/282/266 124/279/263 114/283/267
f 114/283/267 124/279/263 115/284/268
f 115/284/268 124/279/263 116/285/269
f 116/285/269 124/279/263 117/286/270
f 117/286/270 124/279/263 118/287/271
f 118/287/271 124/279/263 119/288/272
f 119/288/272 124/279/263 120/289/273
f 120/289/273 124/279/263 121/290/274
f 121/290/274 124/279/263 122/291/275
f 122/291/275 124/279/263 123/292/276
f 15/293/277 20/294/278 16/295/279
f 16/295/279 20/294/278 21/296/280
f 21/296/280 20/294/278 76/297/281
f 21/296/280 76/297/281 140/298/282
f 140/298/282 76/297/281 75/299/283
f 140/298/282 75/299/283 141/300/284
f 141/300/284 75/299/283 74/301/285
f 141/300/284 74/301/285 142/302/286
f 142/302/286 74/301/285 73/303/287
f 142/302/286 73/303/287 143/304/288
f 143/304/288 73/303/287 72/305/289
f 143/304/288 72/305/289 144/306/290
f 144/306/290 72/305/289 71/307/291
f 144/306/290 71/307/291 145/308/292
f 145/308/292 71/307/291 70/309/293
f 145/308/292 70/309/293 69/310/294
f 145/308/292 69/310/294 146/311/295
f 146/311/295 69/310/294 68/312/296
f 146/311/295 68/312/296 147/313/297
f 147/313/297 68/312/296 67/314/298
f 147/313/297 67/314/298 148/315/299
f 148/315/299 67/314/298 149/316/300
f 149/316/300 67/314/298 65/317/301
f 149/316/300 65/317/301 150/318/302
f 150/318/302 65/317/301 151/319/303
f 151/319/303 65/317/301 152/320/304
f 152/320/304 65/317/301 138/321/305
f 138/321/305 65/317/301 97/322/306
f 97/322/306 65/317/301 43/323/307
f 97/322/306 43/323/307 98/324/308
f 98/324/308 43/323/307 99/325/309
f 99/325/309 43/323/307 100/326/310
f 100/326/310 43/323/307 101/327/311
f 101/327/311 43/323/307 42/328/312
f 101/327/311 42/328/312 102/329/313
f 102/329/313 42/328/312 103/330/314
f 103/330/314 42/328/312 41/331/315
f 103/330/314 41/331/315 104/332/316
f 104/332/316 41/331/315 40/333/317
f 104/332/316 40/333/317 105/334/318
f 105/334/318 40/333/317 39/335/319
f 105/334/318 39/335/319 38/336/320
f 105/334/318 38/336/320 106/337/321
f 106/337/321 38/336/320 37/338/322
f 106/337/321 37/338/322 107/339/323
f 107/339/323 37/338/322 36/340/324
f 107/339/323 36/340/324 108/341/325
f 108/341/325 36/340/324 35/342/326
f 108/341/325 35/342/326 109/343/327
f 109/343/327 35/342/326 34/344/328
f 109/343/327 34/344/328 110/345/329
f 110/345/329 34/344/328 33/346/330
f 110/345/329 33/346/330 29/347/331
f 29/347/331 33/346/330 31/348/332
f 29/347/331 31/348/332 13/349/333
f 13/349/333 14/350/334 29/347/331
# 178 vertices
# 350 texture params
# 334 normals
# 352 facets

# 1 groups
